<svg width="213" height="37" viewBox="0 0 213 37" fill="none" xmlns="http://www.w3.org/2000/svg">
<path d="M17.9453 17.664L16.0733 21.696H8.15325L17.9453 0.383998L30.1373 26.928H14.9693L16.0253 24.624H21.1613L17.9453 17.664ZM28.1693 28.896L30.1853 33.216L23.5133 36.096L22.5053 33.84H9.44925L8.39325 36.096H0.47325L6.13725 23.664H14.1053L11.7053 28.896H28.1693ZM71.2999 16.512C73.3639 18.432 74.6599 21.168 74.6599 24.192C74.6599 30 69.9559 34.704 64.1479 34.704H60.4039V29.856H55.6039V27.456H64.1479C65.9239 27.456 67.4119 26.016 67.4119 24.192C67.4119 22.368 65.9239 20.88 64.1479 20.88H53.5399V31.824H58.4359V36H46.3399V4.464H51.2359V13.68H63.4759C64.5319 13.68 65.4439 12.768 65.4439 11.712C65.4439 10.608 64.5319 9.744 63.4759 9.744H55.5079V11.712H53.2039V2.496H63.4759C68.5639 2.496 72.6919 6.624 72.6919 11.712C72.6919 13.44 72.1639 15.12 71.2999 16.512ZM93.3971 22.272L90.8051 22.848C89.8451 19.008 90.0851 14.64 91.8611 11.136C92.1491 10.608 92.4371 10.128 92.7251 9.648C94.7411 6.528 97.6691 4.272 101.221 3.072C105.301 1.728 109.669 2.064 113.509 4.032C117.349 5.952 120.181 9.216 121.525 13.248L119.797 13.68C119.317 12.336 118.597 11.088 117.781 9.984C116.725 8.592 115.477 7.44 114.037 6.528L113.221 5.952L110.293 10.464C110.293 10.464 110.293 10.464 110.245 10.464C108.133 9.408 105.733 9.216 103.477 9.984C101.221 10.704 99.3971 12.288 98.3411 14.4C97.2851 16.512 97.0931 18.912 97.8131 21.168C98.3891 22.848 99.3971 24.288 100.741 25.344L98.0531 29.52C97.1411 28.8 96.3251 27.984 95.6531 27.072C94.7411 25.872 94.0691 24.576 93.6371 23.136L93.3971 22.272ZM121.141 15.36C122.101 19.152 121.717 23.52 119.989 27.024C118.021 30.864 114.709 33.696 110.629 35.04C106.549 36.384 102.181 36.048 98.3411 34.128C94.5491 32.208 91.7171 28.944 90.3731 24.96L92.0531 24.576C92.5331 25.872 93.2051 27.12 94.0691 28.272C95.1251 29.616 96.3731 30.816 97.8131 31.728L98.6291 32.256L101.605 27.648C103.717 28.752 106.117 28.896 108.373 28.176C110.341 27.552 111.973 26.256 113.029 24.576C113.221 24.288 113.365 24.048 113.509 23.76C114.613 21.648 114.757 19.2 114.037 16.944C113.509 15.312 112.501 13.872 111.157 12.816L113.749 8.736C114.661 9.408 115.477 10.224 116.197 11.184C117.109 12.336 117.781 13.68 118.213 15.12L118.453 15.984L121.141 15.36ZM160.86 2.976H167.484V21.072C167.484 22.8 167.148 24.528 166.524 26.16C165.996 27.456 165.324 28.704 164.46 29.808L160.956 26.64L160.332 27.36C158.748 29.088 156.636 30.144 154.332 30.384V28.464C157.98 27.936 160.86 24.768 160.86 21.024V2.976ZM153.372 32.4C156.252 32.4 158.988 31.344 161.1 29.376L164.028 32.064C161.292 34.752 157.5 36.384 153.372 36.384C144.876 36.384 138.012 29.52 138.012 21.024V3.024L145.02 6.048V21.072C145.02 23.04 145.692 25.008 146.988 26.496C148.284 28.032 150.06 29.04 152.028 29.328L152.364 29.424L152.412 32.4H153.372ZM197.808 6.72V17.472H200.352V35.76H193.104V11.472H182.736V4.224H189.888V6.72H197.808ZM191.856 2.256H212.736L209.856 9.456H202.32V15.504H199.776V4.752H191.856V2.256Z" fill="url(#paint0_linear_12_240)"/>
<defs>
<linearGradient id="paint0_linear_12_240" x1="106.5" y1="-2" x2="106.5" y2="43" gradientUnits="userSpaceOnUse">
<stop stop-color="white"/>
<stop offset="1" stop-color="#5B5B5B"/>
</linearGradient>
</defs>
</svg>
