<svg width="1512" height="312" viewBox="0 0 1512 312" fill="none" xmlns="http://www.w3.org/2000/svg">
<g clip-path="url(#clip0_92_187)">
<path d="M-112.758 282.343C-112.758 282.343 271.061 103.869 523.954 191.411C911.77 325.756 1463.84 108.585 1505.6 0.20752" stroke="#505050" stroke-miterlimit="10"/>
<path d="M1380.49 95.8669C1380.58 96.6599 1380.91 97.4078 1381.42 98.0159C1381.94 98.6241 1382.63 99.0652 1383.39 99.2834C1384.16 99.5017 1384.97 99.4872 1385.73 99.242C1386.49 98.9967 1387.16 98.5316 1387.66 97.9056C1388.15 97.2795 1388.45 96.5206 1388.51 95.7248C1388.58 94.929 1388.4 94.1321 1388.01 93.435C1387.63 92.7378 1387.04 92.1717 1386.33 91.8082C1385.62 91.4447 1384.82 91.3002 1384.03 91.3929C1382.96 91.5172 1382 92.0583 1381.33 92.8972C1380.67 93.7361 1380.37 94.8043 1380.49 95.8669Z" fill="#F6F0E8"/>
<path d="M1275.33 142.693C1275.42 143.483 1275.75 144.228 1276.27 144.832C1276.78 145.437 1277.47 145.874 1278.23 146.09C1279 146.306 1279.81 146.29 1280.56 146.044C1281.32 145.798 1281.98 145.333 1282.48 144.709C1282.97 144.084 1283.27 143.327 1283.33 142.534C1283.39 141.741 1283.22 140.947 1282.83 140.253C1282.44 139.559 1281.86 138.995 1281.15 138.633C1280.44 138.271 1279.64 138.127 1278.85 138.22C1278.33 138.281 1277.82 138.446 1277.36 138.704C1276.9 138.962 1276.49 139.309 1276.16 139.724C1275.84 140.14 1275.59 140.616 1275.45 141.126C1275.31 141.635 1275.27 142.168 1275.33 142.693Z" fill="#F6F0E8"/>
<path d="M1125.2 192.956C1125.29 193.749 1125.62 194.497 1126.13 195.105C1126.65 195.713 1127.34 196.154 1128.1 196.373C1128.87 196.591 1129.69 196.576 1130.44 196.331C1131.2 196.086 1131.87 195.621 1132.37 194.995C1132.86 194.369 1133.16 193.61 1133.22 192.814C1133.29 192.018 1133.11 191.221 1132.73 190.524C1132.34 189.827 1131.75 189.261 1131.04 188.897C1130.33 188.534 1129.53 188.389 1128.74 188.482C1127.68 188.609 1126.71 189.151 1126.05 189.989C1125.39 190.828 1125.08 191.894 1125.2 192.956Z" fill="#F6F0E8"/>
<path d="M877.768 232.83C877.86 233.623 878.185 234.371 878.702 234.979C879.218 235.587 879.904 236.028 880.671 236.246C881.438 236.464 882.252 236.45 883.011 236.205C883.77 235.959 884.439 235.494 884.934 234.868C885.429 234.242 885.727 233.483 885.791 232.688C885.855 231.892 885.682 231.095 885.293 230.398C884.905 229.701 884.318 229.134 883.608 228.771C882.898 228.407 882.096 228.263 881.304 228.356C880.243 228.48 879.274 229.021 878.611 229.86C877.948 230.699 877.645 231.767 877.768 232.83Z" fill="#F6F0E8"/>
<path d="M629.829 221.921C629.923 222.711 630.249 223.456 630.765 224.06C631.282 224.665 631.966 225.102 632.73 225.318C633.495 225.534 634.307 225.518 635.063 225.272C635.818 225.026 636.484 224.561 636.976 223.937C637.469 223.312 637.765 222.555 637.827 221.762C637.89 220.969 637.717 220.175 637.329 219.481C636.941 218.787 636.357 218.223 635.649 217.861C634.941 217.499 634.142 217.355 633.353 217.448C632.294 217.575 631.328 218.117 630.667 218.955C630.007 219.794 629.705 220.861 629.829 221.921Z" fill="#F6F0E8"/>
<path d="M511.871 190.339C511.963 191.132 512.288 191.88 512.805 192.488C513.321 193.096 514.007 193.537 514.774 193.755C515.541 193.973 516.355 193.959 517.114 193.714C517.873 193.469 518.542 193.003 519.037 192.377C519.532 191.751 519.83 190.992 519.894 190.197C519.958 189.401 519.785 188.604 519.396 187.907C519.008 187.21 518.421 186.643 517.711 186.28C517.001 185.916 516.199 185.772 515.407 185.865C514.346 185.989 513.377 186.53 512.714 187.369C512.051 188.208 511.748 189.276 511.871 190.339Z" fill="#F6F0E8"/>
<path d="M302.874 171.244C302.966 172.037 303.291 172.785 303.808 173.393C304.325 174.001 305.01 174.442 305.777 174.66C306.544 174.879 307.358 174.864 308.117 174.619C308.876 174.374 309.545 173.908 310.04 173.282C310.535 172.656 310.833 171.897 310.897 171.102C310.961 170.306 310.788 169.509 310.399 168.812C310.011 168.115 309.424 167.548 308.714 167.185C308.004 166.822 307.203 166.677 306.41 166.77C305.35 166.897 304.384 167.439 303.721 168.277C303.059 169.115 302.754 170.182 302.874 171.244Z" fill="#F6F0E8"/>
<path d="M51.0991 220.699C51.1911 221.492 51.516 222.24 52.0326 222.848C52.5492 223.456 53.2344 223.898 54.0015 224.116C54.7686 224.334 55.5831 224.32 56.3421 224.074C57.101 223.829 57.7702 223.364 58.265 222.738C58.7598 222.112 59.058 221.353 59.1219 220.557C59.1858 219.761 59.0126 218.965 58.624 218.267C58.2354 217.57 57.6491 217.004 56.939 216.641C56.229 216.277 55.4272 216.133 54.6352 216.225C53.5751 216.353 52.6083 216.894 51.9459 217.733C51.2834 218.571 50.979 219.637 51.0991 220.699Z" fill="#F6F0E8"/>
<path d="M1228.91 150.131L1227.31 158.168L1219.18 159.113L1226.28 162.861L1224.66 170.748L1230.66 165.132L1237.79 169.111L1234.41 161.927L1240.45 156.623L1232.33 157.58L1228.91 150.131Z" fill="#F6F0E8"/>
<path d="M1031.1 203.576L1029.77 210.195L1023.08 210.979L1028.93 214.092L1027.6 220.607L1032.55 215.983L1038.42 219.258L1035.64 213.32L1040.61 208.926L1033.92 209.71L1031.1 203.576Z" fill="#F6F0E8"/>
<path d="M751.645 225.611L750.044 233.637L741.912 234.582L749.041 238.526L747.429 246.517L753.441 240.947L760.571 244.948L757.173 237.58L763.186 232.092L755.066 233.049L751.645 225.611Z" fill="#F6F0E8"/>
<path d="M441.184 160.82L439.583 168.857L431.452 169.802L438.547 173.469L436.923 181.333L442.924 175.706L450.053 179.673L446.679 172.547L452.726 167.312L444.605 168.269L441.184 160.82Z" fill="#F6F0E8"/>
<path d="M172.708 175.948L171.095 183.985L162.975 184.931L170.07 188.598L168.435 196.45L174.447 190.811L181.565 194.778L178.19 187.664L184.249 182.44L176.117 183.386L172.708 175.948Z" fill="#F6F0E8"/>
<path d="M1345.03 103.904L1343.42 111.941L1335.29 112.886L1342.4 116.599L1340.78 124.486L1346.78 118.859L1353.91 122.837L1350.52 115.665L1356.57 110.396L1348.45 111.353L1345.03 103.904Z" fill="#F6F0E8"/>
<path d="M1559.75 200.935C1559.75 200.935 1233.47 358.757 973.669 294.565C713.865 230.374 -26.372 194.617 -80.1157 297.563" stroke="#505050" stroke-miterlimit="10"/>
<path d="M1411.6 257.84C1411.6 257.277 1411.77 256.727 1412.08 256.259C1412.39 255.791 1412.83 255.426 1413.35 255.21C1413.87 254.994 1414.44 254.937 1415 255.046C1415.55 255.155 1416.05 255.425 1416.45 255.822C1416.85 256.219 1417.12 256.725 1417.23 257.277C1417.35 257.829 1417.29 258.401 1417.08 258.922C1416.86 259.442 1416.5 259.888 1416.03 260.202C1415.57 260.517 1415.02 260.686 1414.46 260.688C1414.08 260.689 1413.71 260.617 1413.36 260.474C1413.02 260.332 1412.7 260.122 1412.44 259.858C1412.17 259.593 1411.96 259.279 1411.82 258.932C1411.67 258.586 1411.6 258.215 1411.6 257.84Z" fill="#F6F0E8"/>
<path d="M1370.41 269.82C1370.41 269.455 1370.52 269.097 1370.72 268.792C1370.92 268.487 1371.2 268.249 1371.54 268.108C1371.88 267.966 1372.25 267.928 1372.61 267.998C1372.96 268.068 1373.29 268.243 1373.55 268.5C1373.81 268.758 1373.99 269.086 1374.06 269.445C1374.13 269.803 1374.1 270.174 1373.96 270.512C1373.82 270.85 1373.58 271.139 1373.28 271.342C1372.98 271.545 1372.62 271.654 1372.25 271.654C1371.77 271.654 1371.3 271.461 1370.96 271.117C1370.61 270.774 1370.41 270.308 1370.41 269.82Z" fill="#F6F0E8"/>
<path d="M1298.19 287.024C1298.19 286.461 1298.35 285.91 1298.67 285.44C1298.98 284.971 1299.42 284.604 1299.94 284.386C1300.46 284.168 1301.03 284.11 1301.58 284.217C1302.13 284.325 1302.64 284.594 1303.04 284.991C1303.44 285.388 1303.71 285.894 1303.83 286.446C1303.94 286.998 1303.88 287.571 1303.67 288.092C1303.46 288.613 1303.09 289.06 1302.63 289.375C1302.16 289.689 1301.61 289.859 1301.05 289.861C1300.3 289.861 1299.57 289.563 1299.04 289.032C1298.5 288.5 1298.2 287.779 1298.19 287.024Z" fill="#F6F0E8"/>
<path d="M1208.13 303.502C1208.13 302.939 1208.3 302.389 1208.61 301.921C1208.92 301.453 1209.37 301.088 1209.89 300.872C1210.4 300.656 1210.98 300.599 1211.53 300.708C1212.08 300.817 1212.59 301.087 1212.98 301.484C1213.38 301.881 1213.65 302.388 1213.77 302.939C1213.88 303.491 1213.82 304.063 1213.61 304.584C1213.4 305.104 1213.03 305.55 1212.57 305.864C1212.1 306.179 1211.55 306.348 1210.99 306.35C1210.61 306.352 1210.24 306.279 1209.9 306.137C1209.55 305.994 1209.23 305.785 1208.97 305.52C1208.7 305.255 1208.49 304.941 1208.35 304.594C1208.21 304.248 1208.13 303.877 1208.13 303.502Z" fill="#F6F0E8"/>
<path d="M1123.52 309.163C1123.52 308.6 1123.68 308.048 1123.99 307.578C1124.3 307.108 1124.75 306.741 1125.27 306.524C1125.79 306.307 1126.36 306.248 1126.91 306.357C1127.47 306.466 1127.97 306.736 1128.37 307.134C1128.77 307.532 1129.04 308.039 1129.15 308.592C1129.26 309.145 1129.21 309.718 1128.99 310.239C1128.78 310.76 1128.41 311.206 1127.95 311.519C1127.48 311.833 1126.93 312 1126.36 312C1125.99 312.001 1125.62 311.929 1125.28 311.787C1124.93 311.645 1124.62 311.437 1124.35 311.173C1124.09 310.91 1123.88 310.596 1123.74 310.252C1123.59 309.907 1123.52 309.537 1123.52 309.163Z" fill="#F6F0E8"/>
<path d="M1019.02 304.044C1019.01 303.48 1019.18 302.929 1019.49 302.459C1019.8 301.99 1020.24 301.623 1020.76 301.405C1021.28 301.188 1021.85 301.129 1022.4 301.237C1022.96 301.344 1023.46 301.613 1023.86 302.01C1024.26 302.407 1024.54 302.913 1024.65 303.465C1024.76 304.017 1024.71 304.59 1024.49 305.111C1024.28 305.633 1023.92 306.079 1023.45 306.394C1022.98 306.709 1022.43 306.878 1021.87 306.88C1021.5 306.882 1021.13 306.81 1020.78 306.668C1020.44 306.526 1020.12 306.318 1019.86 306.054C1019.59 305.791 1019.38 305.478 1019.24 305.133C1019.09 304.788 1019.02 304.418 1019.02 304.044Z" fill="#F6F0E8"/>
<path d="M923.484 284.476C923.482 283.913 923.646 283.361 923.957 282.892C924.268 282.422 924.711 282.055 925.229 281.838C925.748 281.62 926.32 281.561 926.873 281.669C927.425 281.777 927.933 282.046 928.332 282.443C928.732 282.839 929.005 283.346 929.117 283.898C929.229 284.45 929.175 285.023 928.962 285.544C928.748 286.065 928.386 286.511 927.919 286.826C927.452 287.141 926.903 287.31 926.34 287.313C925.967 287.314 925.596 287.242 925.251 287.1C924.905 286.959 924.591 286.75 924.325 286.487C924.06 286.223 923.849 285.91 923.705 285.565C923.56 285.22 923.485 284.85 923.484 284.476Z" fill="#F6F0E8"/>
<path d="M806.344 266.776C806.342 266.212 806.507 265.661 806.818 265.191C807.129 264.721 807.573 264.354 808.093 264.137C808.612 263.919 809.185 263.861 809.737 263.97C810.29 264.078 810.798 264.349 811.197 264.747C811.596 265.144 811.868 265.652 811.979 266.205C812.089 266.758 812.034 267.331 811.819 267.852C811.604 268.373 811.239 268.818 810.771 269.132C810.303 269.445 809.752 269.613 809.189 269.613C808.437 269.613 807.715 269.314 807.182 268.783C806.648 268.251 806.347 267.529 806.344 266.776Z" fill="#F6F0E8"/>
<path d="M658.566 249.157C658.566 248.594 658.733 248.044 659.045 247.576C659.357 247.108 659.801 246.743 660.32 246.527C660.839 246.311 661.411 246.254 661.962 246.363C662.514 246.472 663.021 246.742 663.419 247.139C663.817 247.536 664.089 248.043 664.2 248.594C664.311 249.146 664.257 249.719 664.043 250.239C663.83 250.76 663.467 251.205 663 251.52C662.534 251.834 661.985 252.003 661.423 252.005C661.048 252.007 660.677 251.934 660.331 251.792C659.984 251.649 659.669 251.44 659.404 251.175C659.138 250.911 658.928 250.596 658.784 250.25C658.64 249.903 658.566 249.532 658.566 249.157Z" fill="#F6F0E8"/>
<path d="M536.036 238.687C536.034 238.124 536.199 237.573 536.509 237.103C536.82 236.633 537.263 236.267 537.782 236.049C538.301 235.831 538.873 235.772 539.425 235.88C539.977 235.988 540.485 236.257 540.885 236.654C541.284 237.05 541.557 237.557 541.669 238.109C541.781 238.661 541.727 239.234 541.514 239.755C541.301 240.276 540.938 240.723 540.472 241.037C540.005 241.352 539.455 241.522 538.893 241.524C538.519 241.525 538.149 241.453 537.803 241.311C537.457 241.17 537.143 240.961 536.878 240.698C536.613 240.434 536.402 240.121 536.257 239.776C536.113 239.431 536.038 239.061 536.036 238.687Z" fill="#F6F0E8"/>
<path d="M415.338 235.424C415.335 234.86 415.5 234.309 415.811 233.839C416.123 233.369 416.566 233.002 417.086 232.785C417.606 232.567 418.178 232.509 418.731 232.618C419.283 232.726 419.791 232.997 420.19 233.395C420.589 233.792 420.861 234.3 420.972 234.853C421.083 235.405 421.027 235.979 420.812 236.5C420.597 237.021 420.232 237.466 419.764 237.78C419.296 238.093 418.746 238.261 418.183 238.261C417.81 238.262 417.44 238.19 417.095 238.048C416.75 237.906 416.436 237.697 416.172 237.434C415.907 237.17 415.697 236.857 415.554 236.512C415.411 236.167 415.338 235.798 415.338 235.424Z" fill="#F6F0E8"/>
<path d="M294.639 233.96C294.685 233.237 295.004 232.559 295.531 232.064C296.059 231.568 296.755 231.293 297.478 231.293C298.201 231.293 298.897 231.568 299.425 232.064C299.952 232.559 300.271 233.237 300.317 233.96C300.342 234.348 300.287 234.738 300.156 235.104C300.024 235.47 299.819 235.806 299.553 236.09C299.287 236.373 298.965 236.6 298.609 236.754C298.252 236.909 297.867 236.989 297.478 236.989C297.089 236.989 296.705 236.909 296.348 236.754C295.991 236.6 295.67 236.373 295.403 236.09C295.137 235.806 294.932 235.47 294.801 235.104C294.669 234.738 294.614 234.348 294.639 233.96Z" fill="#F6F0E8"/>
<path d="M168.538 237.926C168.536 237.363 168.701 236.812 169.011 236.342C169.322 235.872 169.765 235.506 170.284 235.288C170.803 235.07 171.375 235.011 171.927 235.119C172.479 235.227 172.987 235.496 173.387 235.893C173.786 236.289 174.059 236.796 174.171 237.348C174.283 237.9 174.229 238.473 174.016 238.994C173.803 239.515 173.44 239.962 172.973 240.276C172.507 240.591 171.957 240.761 171.395 240.763C171.021 240.764 170.651 240.692 170.305 240.55C169.959 240.409 169.645 240.2 169.38 239.937C169.114 239.673 168.904 239.36 168.759 239.015C168.615 238.67 168.54 238.3 168.538 237.926Z" fill="#F6F0E8"/>
<path d="M10.06 252.813C10.0577 252.249 10.2226 251.697 10.5338 251.227C10.845 250.757 11.2886 250.39 11.8082 250.173C12.3279 249.956 12.9003 249.898 13.4529 250.006C14.0055 250.115 14.5135 250.385 14.9125 250.783C15.3116 251.181 15.5837 251.688 15.6944 252.241C15.8051 252.794 15.7494 253.367 15.5345 253.888C15.3195 254.409 14.9548 254.855 14.4867 255.168C14.0186 255.482 13.4681 255.649 12.9049 255.649C12.5319 255.651 12.1622 255.578 11.8171 255.436C11.472 255.295 11.1583 255.086 10.8939 254.822C10.6296 254.559 10.4199 254.246 10.2767 253.901C10.1336 253.556 10.06 253.186 10.06 252.813Z" fill="#F6F0E8"/>
<path d="M1256.99 295.361C1256.99 294.996 1257.1 294.638 1257.3 294.333C1257.5 294.028 1257.79 293.79 1258.12 293.648C1258.46 293.507 1258.83 293.469 1259.19 293.539C1259.55 293.609 1259.88 293.783 1260.13 294.041C1260.39 294.298 1260.57 294.627 1260.64 294.985C1260.71 295.344 1260.68 295.715 1260.54 296.053C1260.4 296.391 1260.16 296.679 1259.86 296.883C1259.56 297.086 1259.2 297.194 1258.84 297.194C1258.35 297.194 1257.88 297.002 1257.54 296.658C1257.19 296.315 1257 295.848 1256.99 295.361Z" fill="#F6F0E8"/>
<path d="M1174.15 306.419C1174.15 305.929 1174.35 305.458 1174.69 305.111C1175.04 304.763 1175.51 304.566 1176 304.563C1176.36 304.563 1176.72 304.671 1177.02 304.873C1177.32 305.075 1177.56 305.363 1177.7 305.699C1177.84 306.035 1177.87 306.406 1177.8 306.763C1177.73 307.121 1177.56 307.45 1177.3 307.708C1177.05 307.967 1176.72 308.143 1176.36 308.216C1176.01 308.288 1175.64 308.253 1175.3 308.115C1174.96 307.978 1174.67 307.743 1174.47 307.441C1174.27 307.139 1174.16 306.784 1174.15 306.419Z" fill="#F6F0E8"/>
<path d="M1071.48 308.506C1071.48 308.141 1071.58 307.783 1071.79 307.478C1071.99 307.173 1072.27 306.935 1072.61 306.793C1072.95 306.652 1073.32 306.614 1073.68 306.684C1074.03 306.754 1074.36 306.928 1074.62 307.186C1074.88 307.443 1075.06 307.772 1075.13 308.13C1075.2 308.489 1075.17 308.86 1075.03 309.198C1074.89 309.536 1074.65 309.825 1074.35 310.028C1074.05 310.231 1073.69 310.34 1073.32 310.34C1072.84 310.34 1072.37 310.147 1072.02 309.803C1071.68 309.46 1071.48 308.993 1071.48 308.506Z" fill="#F6F0E8"/>
<path d="M977.769 296.145C977.767 295.78 977.873 295.422 978.074 295.117C978.275 294.812 978.562 294.574 978.899 294.432C979.235 294.291 979.606 294.253 979.964 294.323C980.322 294.393 980.652 294.567 980.911 294.825C981.17 295.082 981.346 295.411 981.418 295.769C981.49 296.127 981.455 296.499 981.316 296.837C981.176 297.175 980.94 297.463 980.637 297.667C980.334 297.87 979.977 297.978 979.612 297.978C979.125 297.978 978.658 297.786 978.313 297.442C977.967 297.099 977.772 296.632 977.769 296.145Z" fill="#F6F0E8"/>
<path d="M869.625 274.813C869.623 274.448 869.729 274.09 869.93 273.785C870.131 273.48 870.418 273.242 870.755 273.101C871.091 272.959 871.462 272.921 871.82 272.991C872.179 273.061 872.508 273.236 872.767 273.493C873.026 273.751 873.202 274.079 873.275 274.438C873.347 274.796 873.311 275.167 873.172 275.505C873.032 275.843 872.796 276.132 872.493 276.335C872.19 276.538 871.833 276.647 871.468 276.647C870.981 276.647 870.514 276.454 870.169 276.11C869.824 275.767 869.628 275.301 869.625 274.813Z" fill="#F6F0E8"/>
<path d="M730.866 257.137C730.868 256.775 730.977 256.422 731.179 256.122C731.381 255.823 731.668 255.589 732.002 255.452C732.336 255.315 732.703 255.279 733.057 255.35C733.411 255.422 733.737 255.596 733.992 255.852C734.248 256.107 734.422 256.433 734.493 256.788C734.564 257.142 734.529 257.51 734.391 257.844C734.254 258.179 734.021 258.465 733.722 258.668C733.422 258.87 733.07 258.979 732.709 258.981C732.22 258.981 731.751 258.787 731.406 258.441C731.06 258.095 730.866 257.626 730.866 257.137Z" fill="#F6F0E8"/>
<path d="M597.509 243.127C597.506 242.761 597.612 242.403 597.814 242.098C598.015 241.794 598.302 241.555 598.638 241.414C598.975 241.273 599.346 241.234 599.704 241.304C600.062 241.374 600.392 241.549 600.651 241.806C600.909 242.064 601.086 242.393 601.158 242.751C601.23 243.109 601.194 243.481 601.055 243.818C600.916 244.156 600.68 244.445 600.377 244.648C600.073 244.851 599.717 244.96 599.352 244.96C598.865 244.96 598.398 244.767 598.052 244.424C597.707 244.08 597.512 243.614 597.509 243.127Z" fill="#F6F0E8"/>
<path d="M471.396 236.277C471.394 235.912 471.5 235.554 471.701 235.249C471.903 234.944 472.19 234.706 472.526 234.565C472.863 234.423 473.234 234.385 473.592 234.455C473.95 234.525 474.279 234.7 474.538 234.957C474.797 235.215 474.974 235.543 475.046 235.902C475.118 236.26 475.082 236.631 474.943 236.969C474.804 237.307 474.568 237.596 474.264 237.799C473.961 238.002 473.604 238.111 473.239 238.111C472.753 238.111 472.286 237.918 471.94 237.574C471.595 237.231 471.4 236.765 471.396 236.277Z" fill="#F6F0E8"/>
<path d="M361.548 232.98C361.546 232.614 361.652 232.256 361.853 231.951C362.054 231.646 362.341 231.408 362.677 231.267C363.014 231.125 363.385 231.087 363.743 231.157C364.101 231.227 364.431 231.402 364.69 231.659C364.949 231.917 365.125 232.246 365.197 232.604C365.269 232.962 365.234 233.334 365.094 233.671C364.955 234.009 364.719 234.298 364.416 234.501C364.112 234.704 363.756 234.813 363.391 234.813C362.904 234.813 362.437 234.62 362.092 234.277C361.746 233.933 361.551 233.467 361.548 232.98Z" fill="#F6F0E8"/>
<path d="M231.784 233.348C231.791 232.988 231.904 232.638 232.107 232.341C232.311 232.043 232.597 231.812 232.93 231.676C233.264 231.54 233.63 231.505 233.983 231.574C234.336 231.644 234.661 231.815 234.918 232.068C235.175 232.32 235.352 232.643 235.428 232.995C235.504 233.347 235.476 233.714 235.346 234.05C235.216 234.386 234.99 234.677 234.697 234.886C234.404 235.096 234.056 235.214 233.696 235.228C233.446 235.237 233.196 235.196 232.962 235.105C232.728 235.014 232.515 234.877 232.336 234.701C232.157 234.525 232.015 234.314 231.921 234.082C231.826 233.849 231.779 233.6 231.784 233.348Z" fill="#F6F0E8"/>
<path d="M80.5049 242.792C80.5026 242.427 80.6088 242.069 80.8099 241.764C81.011 241.459 81.298 241.221 81.6346 241.08C81.9711 240.938 82.342 240.9 82.7003 240.97C83.0585 241.04 83.3879 241.215 83.6468 241.472C83.9057 241.73 84.0824 242.058 84.1544 242.417C84.2265 242.775 84.1907 243.146 84.0515 243.484C83.9124 243.822 83.6762 244.111 83.3729 244.314C83.0696 244.517 82.7128 244.626 82.3478 244.626C81.8611 244.626 81.394 244.433 81.0488 244.089C80.7035 243.746 80.508 243.28 80.5049 242.792Z" fill="#F6F0E8"/>
</g>
<defs>
<clipPath id="clip0_92_187">
<rect width="1673" height="312" fill="white" transform="translate(-113)"/>
</clipPath>
</defs>
</svg>
