<svg xmlns="http://www.w3.org/2000/svg" viewBox="0 0 1452.49 270.58"><defs><style>.cls-1{fill:none;stroke:#505050;stroke-miterlimit:10;}.cls-2{fill:#f6f0e8;}</style></defs><g id="Layer_2" data-name="Layer 2"><g id="ARTBOARD_2" data-name="ARTBOARD 2"><path class="cls-1" d="M.21,244.86S333.44,90.08,553,166C889.7,282.51,1369,94.17,1405.26.18"/><path class="cls-2" d="M1296.64,83.14a3.5,3.5,0,1,0,3.07-3.88A3.5,3.5,0,0,0,1296.64,83.14Z"/><path class="cls-2" d="M1205.34,123.75a3.49,3.49,0,1,0,3.06-3.88A3.49,3.49,0,0,0,1205.34,123.75Z"/><path class="cls-2" d="M1075,167.34a3.5,3.5,0,1,0,3.07-3.88A3.51,3.51,0,0,0,1075,167.34Z"/><path class="cls-2" d="M860.18,201.92a3.5,3.5,0,1,0,3.07-3.88A3.5,3.5,0,0,0,860.18,201.92Z"/><path class="cls-2" d="M644.92,192.46a3.49,3.49,0,1,0,3.06-3.88A3.5,3.5,0,0,0,644.92,192.46Z"/><path class="cls-2" d="M542.51,165.07a3.5,3.5,0,1,0,3.07-3.88A3.5,3.5,0,0,0,542.51,165.07Z"/><path class="cls-2" d="M361.06,148.51a3.5,3.5,0,1,0,3.07-3.88A3.51,3.51,0,0,0,361.06,148.51Z"/><path class="cls-2" d="M142.47,191.4a3.5,3.5,0,1,0,3.07-3.88A3.51,3.51,0,0,0,142.47,191.4Z"/><polygon class="cls-2" points="1165.04 130.2 1163.65 137.17 1156.59 137.99 1162.76 141.24 1161.35 148.08 1166.56 143.21 1172.75 146.66 1169.81 140.43 1175.06 135.83 1168.01 136.66 1165.04 130.2"/><polygon class="cls-2" points="993.3 176.55 992.15 182.29 986.34 182.97 991.42 185.67 990.26 191.32 994.56 187.31 999.66 190.15 997.24 185 1001.56 181.19 995.75 181.87 993.3 176.55"/><polygon class="cls-2" points="750.68 195.66 749.29 202.62 742.23 203.44 748.42 206.86 747.02 213.79 752.24 208.96 758.43 212.43 755.48 206.04 760.7 201.28 753.65 202.11 750.68 195.66"/><polygon class="cls-2" points="481.14 139.47 479.75 146.44 472.69 147.26 478.85 150.44 477.44 157.26 482.65 152.38 488.84 155.82 485.91 149.64 491.16 145.1 484.11 145.93 481.14 139.47"/><polygon class="cls-2" points="248.05 152.59 246.65 159.56 239.6 160.38 245.76 163.56 244.34 170.37 249.56 165.48 255.74 168.92 252.81 162.75 258.07 158.22 251.01 159.04 248.05 152.59"/><polygon class="cls-2" points="1265.85 90.11 1264.46 97.08 1257.4 97.9 1263.57 101.12 1262.16 107.96 1267.37 103.08 1273.56 106.53 1270.62 100.31 1275.87 95.74 1268.82 96.57 1265.85 90.11"/><path class="cls-1" d="M1452.27,174.26S1169,311.13,943.44,255.46s-868.23-86.68-914.89,2.6"/><path class="cls-2" d="M1323.65,223.61a2.47,2.47,0,1,1,2.48,2.47A2.47,2.47,0,0,1,1323.65,223.61Z"/><path class="cls-2" d="M1287.89,234a1.6,1.6,0,1,1,1.6,1.59A1.6,1.6,0,0,1,1287.89,234Z"/><path class="cls-2" d="M1225.19,248.92a2.47,2.47,0,1,1,2.48,2.46A2.48,2.48,0,0,1,1225.19,248.92Z"/><path class="cls-2" d="M1147,263.21a2.47,2.47,0,1,1,2.48,2.47A2.47,2.47,0,0,1,1147,263.21Z"/><path class="cls-2" d="M1073.54,268.12a2.47,2.47,0,1,1,2.47,2.46A2.46,2.46,0,0,1,1073.54,268.12Z"/><path class="cls-2" d="M982.81,263.68a2.47,2.47,0,1,1,2.48,2.46A2.47,2.47,0,0,1,982.81,263.68Z"/><path class="cls-2" d="M899.87,246.71a2.47,2.47,0,1,1,2.48,2.46A2.47,2.47,0,0,1,899.87,246.71Z"/><path class="cls-2" d="M798.17,231.36a2.47,2.47,0,1,1,2.47,2.46A2.47,2.47,0,0,1,798.17,231.36Z"/><path class="cls-2" d="M669.87,216.08a2.47,2.47,0,1,1,2.48,2.47A2.47,2.47,0,0,1,669.87,216.08Z"/><path class="cls-2" d="M563.49,207a2.47,2.47,0,1,1,2.48,2.46A2.47,2.47,0,0,1,563.49,207Z"/><path class="cls-2" d="M458.7,204.17a2.47,2.47,0,1,1,2.47,2.46A2.46,2.46,0,0,1,458.7,204.17Z"/><path class="cls-2" d="M353.91,202.9a2.47,2.47,0,0,1,4.93,0,2.47,2.47,0,1,1-4.93,0Z"/><path class="cls-2" d="M244.43,206.34a2.47,2.47,0,1,1,2.48,2.46A2.47,2.47,0,0,1,244.43,206.34Z"/><path class="cls-2" d="M106.84,219.25a2.47,2.47,0,1,1,2.47,2.46A2.46,2.46,0,0,1,106.84,219.25Z"/><path class="cls-2" d="M1189.42,256.15a1.6,1.6,0,1,1,1.6,1.59A1.6,1.6,0,0,1,1189.42,256.15Z"/><path class="cls-2" d="M1117.5,265.74a1.61,1.61,0,0,1,1.6-1.61,1.6,1.6,0,1,1-1.6,1.61Z"/><path class="cls-2" d="M1028.36,267.55a1.6,1.6,0,1,1,1.6,1.59A1.6,1.6,0,0,1,1028.36,267.55Z"/><path class="cls-2" d="M947,256.83a1.6,1.6,0,1,1,1.6,1.59A1.6,1.6,0,0,1,947,256.83Z"/><path class="cls-2" d="M853.11,238.33a1.6,1.6,0,1,1,1.6,1.59A1.6,1.6,0,0,1,853.11,238.33Z"/><path class="cls-2" d="M732.64,223a1.59,1.59,0,1,1,1.6,1.6A1.6,1.6,0,0,1,732.64,223Z"/><path class="cls-2" d="M616.86,210.85a1.6,1.6,0,1,1,1.6,1.59A1.6,1.6,0,0,1,616.86,210.85Z"/><path class="cls-2" d="M507.37,204.91a1.6,1.6,0,1,1,1.6,1.59A1.6,1.6,0,0,1,507.37,204.91Z"/><path class="cls-2" d="M412,202.05a1.6,1.6,0,1,1,1.6,1.59A1.6,1.6,0,0,1,412,202.05Z"/><path class="cls-2" d="M299.34,202.37A1.6,1.6,0,1,1,301,204,1.6,1.6,0,0,1,299.34,202.37Z"/><path class="cls-2" d="M168,210.56a1.6,1.6,0,1,1,1.6,1.59A1.6,1.6,0,0,1,168,210.56Z"/></g></g></svg>