<svg width="509" height="36" viewBox="0 0 509 36" fill="none" xmlns="http://www.w3.org/2000/svg">
<path d="M4.36588 17.576V16.616H2.20588C2.68588 8.408 9.35788 1.784 17.7579 1.544C21.9819 1.4 26.0619 2.936 29.2299 5.912C29.5659 6.2 29.9019 6.584 30.2379 6.92L24.8619 11.72C23.2299 9.896 20.8779 8.744 18.2379 8.744C13.3419 8.744 9.35788 12.728 9.35788 17.576C9.35788 19.352 9.88588 20.984 10.7979 22.376L6.86188 25.544C6.14188 24.536 5.56588 23.432 5.13388 22.232C4.60588 20.744 4.36588 19.16 4.36588 17.576ZM18.2379 27.944C20.6379 27.944 22.8939 27.128 24.7179 25.64L29.3739 31.448C26.1099 34.04 22.2219 35.288 18.2859 35.288C13.2459 35.288 8.20588 33.176 4.70188 29.096C2.10988 26.024 0.765875 22.328 0.573875 18.584H2.39788C2.49388 20.072 2.78188 21.512 3.30988 22.904C3.88588 24.584 4.79788 26.168 5.90188 27.56L6.52588 28.328L10.8459 24.824L11.2299 25.16C13.1499 26.936 15.6459 27.944 18.2379 27.944ZM57.1734 15.416V18.2H66.5334V22.664H53.5254V35.144H46.3254V2.936H53.5254V15.416H57.1734ZM75.7494 1.592H75.7974V35.096L68.5974 31.976V31.928L68.5014 16.232H59.1414V13.448H68.5974V1.592H75.7494ZM96.0065 21.272L93.4145 21.848C92.4545 18.008 92.6945 13.64 94.4705 10.136C94.7585 9.608 95.0465 9.128 95.3345 8.648C97.3505 5.528 100.279 3.272 103.831 2.072C107.911 0.727998 112.279 1.064 116.119 3.032C119.959 4.952 122.791 8.216 124.135 12.248L122.407 12.68C121.927 11.336 121.207 10.088 120.391 8.984C119.335 7.592 118.087 6.44 116.647 5.528L115.831 4.952L112.903 9.464C112.903 9.464 112.903 9.464 112.855 9.464C110.743 8.408 108.343 8.216 106.087 8.984C103.831 9.704 102.007 11.288 100.951 13.4C99.8945 15.512 99.7025 17.912 100.423 20.168C100.999 21.848 102.007 23.288 103.351 24.344L100.663 28.52C99.7505 27.8 98.9345 26.984 98.2625 26.072C97.3505 24.872 96.6785 23.576 96.2465 22.136L96.0065 21.272ZM123.751 14.36C124.711 18.152 124.327 22.52 122.599 26.024C120.631 29.864 117.319 32.696 113.239 34.04C109.159 35.384 104.791 35.048 100.951 33.128C97.1585 31.208 94.3265 27.944 92.9825 23.96L94.6625 23.576C95.1425 24.872 95.8145 26.12 96.6785 27.272C97.7345 28.616 98.9825 29.816 100.423 30.728L101.239 31.256L104.215 26.648C106.327 27.752 108.727 27.896 110.983 27.176C112.951 26.552 114.583 25.256 115.639 23.576C115.831 23.288 115.975 23.048 116.119 22.76C117.223 20.648 117.367 18.2 116.647 15.944C116.119 14.312 115.111 12.872 113.767 11.816L116.359 7.736C117.271 8.408 118.087 9.224 118.807 10.184C119.719 11.336 120.391 12.68 120.823 14.12L121.062 14.984L123.751 14.36ZM143.069 21.272L140.477 21.848C139.517 18.008 139.757 13.64 141.533 10.136C141.821 9.608 142.109 9.128 142.397 8.648C144.413 5.528 147.341 3.272 150.893 2.072C154.973 0.727998 159.341 1.064 163.181 3.032C167.021 4.952 169.853 8.216 171.197 12.248L169.469 12.68C168.989 11.336 168.269 10.088 167.453 8.984C166.397 7.592 165.149 6.44 163.709 5.528L162.893 4.952L159.965 9.464C159.965 9.464 159.965 9.464 159.917 9.464C157.805 8.408 155.405 8.216 153.149 8.984C150.893 9.704 149.069 11.288 148.013 13.4C146.957 15.512 146.765 17.912 147.485 20.168C148.061 21.848 149.069 23.288 150.413 24.344L147.725 28.52C146.813 27.8 145.997 26.984 145.325 26.072C144.413 24.872 143.741 23.576 143.309 22.136L143.069 21.272ZM170.813 14.36C171.773 18.152 171.389 22.52 169.661 26.024C167.693 29.864 164.381 32.696 160.301 34.04C156.221 35.384 151.853 35.048 148.013 33.128C144.221 31.208 141.389 27.944 140.045 23.96L141.725 23.576C142.205 24.872 142.877 26.12 143.741 27.272C144.797 28.616 146.045 29.816 147.485 30.728L148.301 31.256L151.277 26.648C153.389 27.752 155.789 27.896 158.045 27.176C160.013 26.552 161.645 25.256 162.701 23.576C162.893 23.288 163.037 23.048 163.181 22.76C164.285 20.648 164.429 18.2 163.709 15.944C163.181 14.312 162.173 12.872 160.829 11.816L163.421 7.736C164.333 8.408 165.149 9.224 165.869 10.184C166.781 11.336 167.453 12.68 167.885 14.12L168.125 14.984L170.813 14.36ZM204.676 17.24C209.044 17.24 212.596 20.744 212.596 25.016H214.852C214.852 30.536 210.292 35 204.676 35H188.884V27.896H204.676C206.308 27.896 207.652 26.6 207.652 25.016C207.652 23.384 206.308 22.088 204.676 22.088H196.9C191.284 22.088 186.724 17.624 186.724 12.104H191.428C191.572 14.936 195.316 17.24 197.956 17.24H204.676ZM198.484 15.704C195.556 15.704 193.204 13.352 193.204 10.52H188.308C188.308 5 192.868 0.487998 198.484 0.487998H216.244L209.14 7.592H198.484C196.852 7.592 195.508 8.936 195.508 10.52C195.508 12.104 196.852 13.448 198.484 13.448H206.26C208.468 13.448 211.06 14.552 213.028 16.376C215.044 18.2 216.484 20.696 216.484 23.432H214.324C214.084 19.304 209.859 15.704 206.26 15.704H198.484ZM239.415 23.624V27.752H256.071V34.952H232.215V17.096H234.279V21.32H240.903V23.624H239.415ZM258.039 8.648H241.383V14.408H257.991L255.207 21.56L255.159 21.656H242.871V19.352H236.295V15.128H234.183V1.448H258.039V8.648ZM309.493 23.624V27.752H326.149V34.952H302.293V17.096H304.357V21.32H310.981V23.624H309.493ZM328.117 8.648H311.461V14.408H328.069L325.285 21.56L325.237 21.656H312.949V19.352H306.373V15.128H304.261V1.448H328.117V8.648ZM368.044 1.448H376.012L361.852 32.168L360.46 29.144L365.98 17.096L363.388 11.48L368.044 1.448ZM363.388 17.768L357.82 29.816L359.212 32.84L357.868 35.864L342.364 2.072H350.284L357.868 18.536L360.748 12.152L363.388 17.768ZM397.805 23.624V27.752H414.461V34.952H390.605V17.096H392.669V21.32H399.293V23.624H397.805ZM416.429 8.648H399.773V14.408H416.381L413.597 21.56L413.549 21.656H401.261V19.352H394.685V15.128H392.573V1.448H416.429V8.648ZM455.396 4.664L462.596 1.496V35L452.132 25.832V22.712L435.284 8.024V1.496L455.396 19.064V4.664ZM433.316 35V10.04L450.116 24.68V27.8L440.516 19.4V35H433.316ZM493.667 5.72V16.472H496.211V34.76H488.963V10.472H478.595V3.224H485.747V5.72H493.667ZM487.715 1.256H508.595L505.715 8.456H498.179V14.504H495.635V3.752H487.715V1.256Z" fill="url(#paint0_linear_24_335)"/>
<defs>
<linearGradient id="paint0_linear_24_335" x1="254" y1="-3" x2="254" y2="42" gradientUnits="userSpaceOnUse">
<stop stop-color="white"/>
<stop offset="1" stop-color="#5B5B5B"/>
</linearGradient>
</defs>
</svg>
