<svg width="298" height="37" viewBox="0 0 298 37" fill="none" xmlns="http://www.w3.org/2000/svg">
<path d="M4.3815 18.576V17.616H2.2215C2.7015 9.408 9.3735 2.784 17.7735 2.544C21.9975 2.4 26.0775 3.936 29.2455 6.912C29.5815 7.2 29.9175 7.584 30.2535 7.92L24.8775 12.72C23.2455 10.896 20.8935 9.744 18.2535 9.744C13.3575 9.744 9.3735 13.728 9.3735 18.576C9.3735 20.352 9.9015 21.984 10.8135 23.376L6.8775 26.544C6.1575 25.536 5.5815 24.432 5.1495 23.232C4.6215 21.744 4.3815 20.16 4.3815 18.576ZM18.2535 28.944C20.6535 28.944 22.9095 28.128 24.7335 26.64L29.3895 32.448C26.1255 35.04 22.2375 36.288 18.3015 36.288C13.2615 36.288 8.2215 34.176 4.7175 30.096C2.1255 27.024 0.7815 23.328 0.5895 19.584H2.4135C2.5095 21.072 2.7975 22.512 3.3255 23.904C3.9015 25.584 4.8135 27.168 5.9175 28.56L6.5415 29.328L10.8615 25.824L11.2455 26.16C13.1655 27.936 15.6615 28.944 18.2535 28.944ZM48.069 22.272L45.477 22.848C44.517 19.008 44.757 14.64 46.533 11.136C46.821 10.608 47.109 10.128 47.397 9.648C49.413 6.528 52.341 4.272 55.893 3.072C59.973 1.728 64.341 2.064 68.181 4.032C72.021 5.952 74.853 9.216 76.197 13.248L74.469 13.68C73.989 12.336 73.269 11.088 72.453 9.984C71.397 8.592 70.149 7.44 68.709 6.528L67.893 5.952L64.965 10.464C64.965 10.464 64.965 10.464 64.917 10.464C62.805 9.408 60.405 9.216 58.149 9.984C55.893 10.704 54.069 12.288 53.013 14.4C51.957 16.512 51.765 18.912 52.485 21.168C53.061 22.848 54.069 24.288 55.413 25.344L52.725 29.52C51.813 28.8 50.997 27.984 50.325 27.072C49.413 25.872 48.741 24.576 48.309 23.136L48.069 22.272ZM75.813 15.36C76.773 19.152 76.389 23.52 74.661 27.024C72.693 30.864 69.381 33.696 65.301 35.04C61.221 36.384 56.853 36.048 53.013 34.128C49.221 32.208 46.389 28.944 45.045 24.96L46.725 24.576C47.205 25.872 47.877 27.12 48.741 28.272C49.797 29.616 51.045 30.816 52.485 31.728L53.301 32.256L56.277 27.648C58.389 28.752 60.789 28.896 63.045 28.176C65.013 27.552 66.645 26.256 67.701 24.576C67.893 24.288 68.037 24.048 68.181 23.76C69.285 21.648 69.429 19.2 68.709 16.944C68.181 15.312 67.173 13.872 65.829 12.816L68.421 8.736C69.333 9.408 70.149 10.224 70.869 11.184C71.781 12.336 72.453 13.68 72.885 15.12L73.125 15.984L75.813 15.36ZM115.1 5.664L122.3 2.496V36L111.836 26.832V23.712L94.9875 9.024V2.496L115.1 20.064V5.664ZM93.0195 36V11.04L109.82 25.68V28.8L100.22 20.4V36H93.0195ZM153.37 6.72V17.472H155.914V35.76H148.666V11.472H138.298V4.224H145.45V6.72H153.37ZM147.418 2.256H168.298L165.418 9.456H157.882V15.504H155.338V4.752H147.418V2.256ZM197.945 17.664L196.073 21.696H188.153L197.945 0.383998L210.137 26.928H194.969L196.025 24.624H201.161L197.945 17.664ZM208.169 28.896L210.185 33.216L203.513 36.096L202.505 33.84H189.449L188.393 36.096H180.473L186.137 23.664H194.105L191.705 28.896H208.169ZM228.116 18.576V17.616H225.956C226.436 9.408 233.108 2.784 241.508 2.544C245.732 2.4 249.812 3.936 252.98 6.912C253.316 7.2 253.652 7.584 253.988 7.92L248.612 12.72C246.98 10.896 244.628 9.744 241.988 9.744C237.092 9.744 233.108 13.728 233.108 18.576C233.108 20.352 233.636 21.984 234.548 23.376L230.612 26.544C229.892 25.536 229.316 24.432 228.884 23.232C228.356 21.744 228.116 20.16 228.116 18.576ZM241.988 28.944C244.388 28.944 246.644 28.128 248.468 26.64L253.124 32.448C249.86 35.04 245.972 36.288 242.036 36.288C236.996 36.288 231.956 34.176 228.452 30.096C225.86 27.024 224.516 23.328 224.324 19.584H226.148C226.244 21.072 226.532 22.512 227.06 23.904C227.636 25.584 228.548 27.168 229.652 28.56L230.276 29.328L234.596 25.824L234.98 26.16C236.9 27.936 239.396 28.944 241.988 28.944ZM282.651 6.72V17.472H285.195V35.76H277.947V11.472H267.579V4.224H274.731V6.72H282.651ZM276.699 2.256H297.579L294.699 9.456H287.163V15.504H284.619V4.752H276.699V2.256Z" fill="url(#paint0_linear_107_2)"/>
<defs>
<linearGradient id="paint0_linear_107_2" x1="148.5" y1="-2" x2="148.5" y2="43" gradientUnits="userSpaceOnUse">
<stop stop-color="white"/>
<stop offset="1" stop-color="#5B5B5B"/>
</linearGradient>
</defs>
</svg>
