<svg width="251" height="36" viewBox="0 0 251 36" fill="none" xmlns="http://www.w3.org/2000/svg">
<path d="M8.03975 23.624V27.752H24.6958V34.952H0.83975V17.096H2.90375V21.32H9.52775V23.624H8.03975ZM26.6638 8.648H10.0078V14.408H26.6158L23.8318 21.56L23.7838 21.656H11.4958V19.352H4.91975V15.128H2.80775V1.448H26.6638V8.648ZM66.5908 1.448H74.5588L60.3988 32.168L59.0068 29.144L64.5268 17.096L61.9348 11.48L66.5908 1.448ZM61.9348 17.768L56.3668 29.816L57.7588 32.84L56.4148 35.864L40.9108 2.072H48.8308L56.4148 18.536L59.2948 12.152L61.9348 17.768ZM96.3523 23.624V27.752H113.008V34.952H89.1523V17.096H91.2163V21.32H97.8403V23.624H96.3523ZM114.976 8.648H98.3203V14.408H114.928L112.144 21.56L112.096 21.656H99.8083V19.352H93.2323V15.128H91.1203V1.448H114.976V8.648ZM153.943 4.664L161.143 1.496V35L150.679 25.832V22.712L133.831 8.024V1.496L153.943 19.064V4.664ZM131.863 35V10.04L148.663 24.68V27.8L139.063 19.4V35H131.863ZM192.214 5.72V16.472H194.758V34.76H187.51V10.472H177.142V3.224H184.294V5.72H192.214ZM186.262 1.256H207.142L204.262 8.456H196.726V14.504H194.182V3.752H186.262V1.256ZM238.613 17.24C242.981 17.24 246.533 20.744 246.533 25.016H248.789C248.789 30.536 244.229 35 238.613 35H222.821V27.896H238.613C240.245 27.896 241.589 26.6 241.589 25.016C241.589 23.384 240.245 22.088 238.613 22.088H230.837C225.221 22.088 220.661 17.624 220.661 12.104H225.365C225.509 14.936 229.253 17.24 231.893 17.24H238.613ZM232.421 15.704C229.493 15.704 227.141 13.352 227.141 10.52H222.245C222.245 5 226.805 0.487998 232.421 0.487998H250.181L243.077 7.592H232.421C230.789 7.592 229.445 8.936 229.445 10.52C229.445 12.104 230.789 13.448 232.421 13.448H240.197C242.405 13.448 244.997 14.552 246.965 16.376C248.981 18.2 250.421 20.696 250.421 23.432H248.261C248.021 19.304 243.797 15.704 240.197 15.704H232.421Z" fill="url(#paint0_linear_9_170)"/>
<defs>
<linearGradient id="paint0_linear_9_170" x1="125" y1="-3" x2="125" y2="42" gradientUnits="userSpaceOnUse">
<stop stop-color="white"/>
<stop offset="1" stop-color="#5B5B5B"/>
</linearGradient>
</defs>
</svg>
