<svg width="717" height="47" viewBox="0 0 717 47" fill="none" xmlns="http://www.w3.org/2000/svg">
<path d="M24.5663 33.456L11.3823 20.208H1.71825V0.623997L11.3823 4.784V14.96L25.7183 0.623997H39.3503L18.1663 21.744L29.8143 33.456H24.5663ZM22.8383 36.08H28.0863L37.8783 45.872H24.2463L9.59025 31.216V46.192H-0.00974989V22.832H9.59025L22.8383 36.08ZM87.9348 5.552L97.5348 1.328V46L83.5828 33.776V29.616L61.1188 10.032V1.328L87.9348 24.752V5.552ZM58.4948 46V12.72L80.8948 32.24V36.4L68.0948 25.2V46H58.4948ZM124.498 27.696L121.042 28.464C119.762 23.344 120.082 17.52 122.45 12.848C122.834 12.144 123.218 11.504 123.602 10.864C126.29 6.704 130.194 3.696 134.93 2.096C140.37 0.303997 146.194 0.751999 151.314 3.376C156.434 5.936 160.21 10.288 162.002 15.664L159.698 16.24C159.058 14.448 158.098 12.784 157.01 11.312C155.602 9.456 153.938 7.92 152.018 6.704L150.93 5.936L147.026 11.952C147.026 11.952 147.026 11.952 146.962 11.952C144.146 10.544 140.946 10.288 137.938 11.312C134.93 12.272 132.498 14.384 131.09 17.2C129.682 20.016 129.426 23.216 130.386 26.224C131.154 28.464 132.498 30.384 134.29 31.792L130.706 37.36C129.49 36.4 128.402 35.312 127.506 34.096C126.29 32.496 125.394 30.768 124.818 28.848L124.498 27.696ZM161.49 18.48C162.77 23.536 162.258 29.36 159.954 34.032C157.33 39.152 152.914 42.928 147.474 44.72C142.034 46.512 136.21 46.064 131.09 43.504C126.034 40.944 122.258 36.592 120.466 31.28L122.706 30.768C123.346 32.496 124.242 34.16 125.394 35.696C126.802 37.488 128.466 39.088 130.386 40.304L131.474 41.008L135.442 34.864C138.258 36.336 141.458 36.528 144.466 35.568C147.09 34.736 149.266 33.008 150.674 30.768C150.93 30.384 151.122 30.064 151.314 29.68C152.786 26.864 152.978 23.6 152.018 20.592C151.314 18.416 149.97 16.496 148.178 15.088L151.634 9.648C152.85 10.544 153.938 11.632 154.898 12.912C156.114 14.448 157.01 16.24 157.586 18.16L157.906 19.312L161.49 18.48ZM202.672 26.032L209.904 14.064L222.704 35.056V34.992L219.696 41.584L212.08 29.104L201.456 46.576L201.328 46.192L180.656 1.2H191.216L202.672 26.032ZM235.504 2.288H246.128L226.288 45.36L226.224 45.68L223.152 40.688L226.224 34.16L213.424 13.168L215.6 9.648L225.008 25.136L235.504 2.288ZM323.269 1.392V46L313.605 41.84V24.688L296.133 42.16L289.093 35.12V31.152L268.933 10.992V1.328L296.133 28.528L323.269 1.392ZM266.309 46V12.72L286.469 32.88V36.848L275.909 26.352V46H266.309ZM356.522 30.832V36.336H378.73V45.936H346.922V22.128H349.674V27.76H358.506V30.832H356.522ZM381.354 10.864H359.146V18.544H381.29L377.578 28.08L377.514 28.208H361.13V25.136H352.362V19.504H349.546V1.264H381.354V10.864ZM413.022 30.832V36.336H435.23V45.936H403.422V22.128H406.174V27.76H415.006V30.832H413.022ZM437.854 10.864H415.646V18.544H437.79L434.078 28.08L434.014 28.208H417.63V25.136H408.862V19.504H406.046V1.264H437.854V10.864ZM477.65 6.96V21.296H481.042V45.68H471.378V13.296H457.554V3.632H467.09V6.96H477.65ZM469.714 1.008H497.554L493.714 10.608H483.666V18.672H480.274V4.336H469.714V1.008ZM524.923 35.376L522.939 37.168H547.835V46.704H516.667V37.488L522.107 32.432C525.627 29.232 529.595 26.672 533.371 24.176L535.099 23.024C537.915 21.168 539.067 18.864 539.259 16.816H543.355C543.163 20.528 540.987 23.984 537.403 26.352C536.827 26.736 536.251 27.12 535.675 27.504C532.027 29.872 528.251 32.304 524.923 35.376ZM539.067 14.512C538.427 12.208 536.571 10.736 534.011 10.544H516.667V0.943996H534.395C541.115 1.264 546.619 5.616 548.411 12.016C550.331 19.12 547.195 26.608 540.411 31.088L538.619 32.24C537.019 33.328 535.419 34.352 533.947 35.376H527.547C530.363 33.008 533.563 30.96 536.571 28.976C537.211 28.592 537.787 28.208 538.363 27.824C542.779 24.944 545.211 20.592 545.147 15.92V15.088H539.195C539.195 14.896 539.131 14.704 539.067 14.512ZM596.629 33.456L583.445 20.208H573.781V0.623997L583.445 4.784V14.96L597.781 0.623997H611.413L590.229 21.744L601.877 33.456H596.629ZM594.901 36.08H600.149L609.941 45.872H596.309L581.653 31.216V46.192H572.053V22.832H581.653L594.901 36.08ZM638.173 35.376L636.189 37.168H661.085V46.704H629.917V37.488L635.357 32.432C638.877 29.232 642.845 26.672 646.621 24.176L648.349 23.024C651.165 21.168 652.317 18.864 652.509 16.816H656.605C656.413 20.528 654.237 23.984 650.653 26.352C650.077 26.736 649.501 27.12 648.925 27.504C645.277 29.872 641.501 32.304 638.173 35.376ZM652.317 14.512C651.677 12.208 649.821 10.736 647.261 10.544H629.917V0.943996H647.645C654.365 1.264 659.869 5.616 661.661 12.016C663.581 19.12 660.445 26.608 653.661 31.088L651.869 32.24C650.269 33.328 648.669 34.352 647.197 35.376H640.797C643.613 33.008 646.813 30.96 649.821 28.976C650.461 28.592 651.037 28.208 651.613 27.824C656.029 24.944 658.461 20.592 658.397 15.92V15.088H652.445C652.445 14.896 652.381 14.704 652.317 14.512ZM694.583 1.072V25.456L704.759 27.888V30.576L684.983 25.968V1.072H694.583ZM706.551 1.328H716.215V46.064H706.551V31.024V26.48L696.375 24.112V18.736L706.551 21.104V1.328Z" fill="url(#paint0_linear_7_6)"/>
<defs>
<linearGradient id="paint0_linear_7_6" x1="358.5" y1="-5" x2="358.5" y2="55" gradientUnits="userSpaceOnUse">
<stop stop-color="white"/>
<stop offset="1" stop-color="#5B5B5B"/>
</linearGradient>
</defs>
</svg>
