<svg width="741" height="49" viewBox="0 0 741 49" fill="none" xmlns="http://www.w3.org/2000/svg">
<path d="M25.41 35.456L12.226 22.208H2.562V2.624L12.226 6.784V16.96L26.562 2.624H40.194L19.01 23.744L30.658 35.456H25.41ZM23.682 38.08H28.93L38.722 47.872H25.09L10.434 33.216V48.192H0.834V24.832H10.434L23.682 38.08ZM88.7785 7.552L98.3785 3.328V48L84.4265 35.776V31.616L61.9625 12.032V3.328L88.7785 26.752V7.552ZM59.3385 48V14.72L81.7385 34.24V38.4L68.9385 27.2V48H59.3385ZM125.342 29.696L121.886 30.464C120.606 25.344 120.926 19.52 123.294 14.848C123.678 14.144 124.062 13.504 124.446 12.864C127.134 8.704 131.038 5.696 135.774 4.096C141.214 2.304 147.038 2.752 152.158 5.376C157.278 7.936 161.054 12.288 162.846 17.664L160.542 18.24C159.902 16.448 158.942 14.784 157.854 13.312C156.446 11.456 154.782 9.92 152.862 8.704L151.774 7.936L147.87 13.952C147.87 13.952 147.87 13.952 147.806 13.952C144.99 12.544 141.79 12.288 138.782 13.312C135.774 14.272 133.342 16.384 131.934 19.2C130.526 22.016 130.27 25.216 131.23 28.224C131.998 30.464 133.342 32.384 135.134 33.792L131.55 39.36C130.334 38.4 129.246 37.312 128.35 36.096C127.134 34.496 126.238 32.768 125.662 30.848L125.342 29.696ZM162.334 20.48C163.614 25.536 163.102 31.36 160.798 36.032C158.174 41.152 153.758 44.928 148.318 46.72C142.878 48.512 137.054 48.064 131.934 45.504C126.878 42.944 123.102 38.592 121.31 33.28L123.55 32.768C124.19 34.496 125.086 36.16 126.238 37.696C127.646 39.488 129.31 41.088 131.23 42.304L132.318 43.008L136.286 36.864C139.102 38.336 142.302 38.528 145.31 37.568C147.934 36.736 150.11 35.008 151.518 32.768C151.774 32.384 151.966 32.064 152.158 31.68C153.63 28.864 153.822 25.6 152.862 22.592C152.158 20.416 150.814 18.496 149.022 17.088L152.478 11.648C153.694 12.544 154.782 13.632 155.742 14.912C156.958 16.448 157.854 18.24 158.43 20.16L158.75 21.312L162.334 20.48ZM203.516 28.032L210.748 16.064L223.548 37.056V36.992L220.54 43.584L212.924 31.104L202.3 48.576L202.172 48.192L181.5 3.2H192.06L203.516 28.032ZM236.348 4.288H246.972L227.132 47.36L227.068 47.68L223.996 42.688L227.068 36.16L214.268 15.168L216.444 11.648L225.852 27.136L236.348 4.288ZM324.113 3.392V48L314.449 43.84V26.688L296.977 44.16L289.937 37.12V33.152L269.777 12.992V3.328L296.977 30.528L324.113 3.392ZM267.153 48V14.72L287.313 34.88V38.848L276.753 28.352V48H267.153ZM357.366 32.832V38.336H379.574V47.936H347.766V24.128H350.518V29.76H359.35V32.832H357.366ZM382.198 12.864H359.99V20.544H382.134L378.422 30.08L378.358 30.208H361.974V27.136H353.206V21.504H350.39V3.264H382.198V12.864ZM413.866 32.832V38.336H436.074V47.936H404.266V24.128H407.018V29.76H415.85V32.832H413.866ZM438.698 12.864H416.49V20.544H438.634L434.922 30.08L434.858 30.208H418.474V27.136H409.706V21.504H406.89V3.264H438.698V12.864ZM478.494 8.96V23.296H481.886V47.68H472.222V15.296H458.398V5.632H467.934V8.96H478.494ZM470.558 3.008H498.398L494.558 12.608H484.51V20.672H481.118V6.336H470.558V3.008ZM515.527 0.639999H520.455V5.568L516.871 10.112L517.511 5.568H515.527V0.639999ZM549.08 37.376L547.095 39.168H571.992V48.704H540.824V39.488L546.264 34.432C549.784 31.232 553.752 28.672 557.528 26.176L559.256 25.024C562.072 23.168 563.224 20.864 563.416 18.816H567.512C567.32 22.528 565.144 25.984 561.56 28.352C560.984 28.736 560.408 29.12 559.832 29.504C556.184 31.872 552.408 34.304 549.08 37.376ZM563.224 16.512C562.584 14.208 560.728 12.736 558.168 12.544H540.824V2.944H558.552C565.272 3.264 570.776 7.616 572.568 14.016C574.488 21.12 571.352 28.608 564.568 33.088L562.776 34.24C561.176 35.328 559.576 36.352 558.104 37.376H551.704C554.52 35.008 557.72 32.96 560.728 30.976C561.368 30.592 561.944 30.208 562.52 29.824C566.936 26.944 569.368 22.592 569.304 17.92V17.088H563.352C563.352 16.896 563.288 16.704 563.224 16.512ZM620.785 35.456L607.601 22.208H597.937V2.624L607.601 6.784V16.96L621.937 2.624H635.569L614.385 23.744L626.033 35.456H620.785ZM619.057 38.08H624.305L634.097 47.872H620.465L605.809 33.216V48.192H596.209V24.832H605.809L619.057 38.08ZM662.33 37.376L660.345 39.168H685.242V48.704H654.074V39.488L659.514 34.432C663.034 31.232 667.002 28.672 670.778 26.176L672.506 25.024C675.322 23.168 676.474 20.864 676.666 18.816H680.762C680.57 22.528 678.394 25.984 674.81 28.352C674.234 28.736 673.658 29.12 673.082 29.504C669.434 31.872 665.658 34.304 662.33 37.376ZM676.474 16.512C675.834 14.208 673.978 12.736 671.418 12.544H654.074V2.944H671.802C678.522 3.264 684.026 7.616 685.818 14.016C687.738 21.12 684.602 28.608 677.818 33.088L676.026 34.24C674.426 35.328 672.826 36.352 671.354 37.376H664.954C667.77 35.008 670.97 32.96 673.978 30.976C674.618 30.592 675.194 30.208 675.77 29.824C680.186 26.944 682.618 22.592 682.554 17.92V17.088H676.602C676.602 16.896 676.538 16.704 676.474 16.512ZM718.739 3.072V27.456L728.915 29.888V32.576L709.139 27.968V3.072H718.739ZM730.707 3.328H740.371V48.064H730.707V33.024V28.48L720.531 26.112V20.736L730.707 23.104V3.328Z" fill="url(#paint0_linear_7_6)"/>
<defs>
<linearGradient id="paint0_linear_7_6" x1="371" y1="-3" x2="371" y2="57" gradientUnits="userSpaceOnUse">
<stop stop-color="white"/>
<stop offset="1" stop-color="#5B5B5B"/>
</linearGradient>
</defs>
</svg>
