<svg width="880" height="37" viewBox="0 0 880 37" fill="none" xmlns="http://www.w3.org/2000/svg">
<path d="M23.037 5.664L30.237 2.496V36L19.773 26.832V23.712L2.925 9.024V2.496L23.037 20.064V5.664ZM0.957 36V11.04L17.757 25.68V28.8L8.157 20.4V36H0.957ZM50.4596 22.272L47.8676 22.848C46.9076 19.008 47.1476 14.64 48.9236 11.136C49.2116 10.608 49.4996 10.128 49.7876 9.648C51.8036 6.528 54.7316 4.272 58.2836 3.072C62.3636 1.728 66.7316 2.064 70.5716 4.032C74.4116 5.952 77.2436 9.216 78.5876 13.248L76.8596 13.68C76.3796 12.336 75.6596 11.088 74.8436 9.984C73.7876 8.592 72.5396 7.44 71.0996 6.528L70.2836 5.952L67.3556 10.464C67.3556 10.464 67.3556 10.464 67.3076 10.464C65.1956 9.408 62.7956 9.216 60.5396 9.984C58.2836 10.704 56.4596 12.288 55.4036 14.4C54.3476 16.512 54.1556 18.912 54.8756 21.168C55.4516 22.848 56.4596 24.288 57.8036 25.344L55.1156 29.52C54.2036 28.8 53.3876 27.984 52.7156 27.072C51.8036 25.872 51.1316 24.576 50.6996 23.136L50.4596 22.272ZM78.2036 15.36C79.1636 19.152 78.7796 23.52 77.0516 27.024C75.0836 30.864 71.7716 33.696 67.6916 35.04C63.6116 36.384 59.2436 36.048 55.4036 34.128C51.6116 32.208 48.7796 28.944 47.4356 24.96L49.1156 24.576C49.5956 25.872 50.2676 27.12 51.1316 28.272C52.1876 29.616 53.4356 30.816 54.8756 31.728L55.6916 32.256L58.6676 27.648C60.7796 28.752 63.1796 28.896 65.4356 28.176C67.4036 27.552 69.0356 26.256 70.0916 24.576C70.2836 24.288 70.4276 24.048 70.5716 23.76C71.6756 21.648 71.8196 19.2 71.0996 16.944C70.5716 15.312 69.5636 13.872 68.2196 12.816L70.8116 8.736C71.7236 9.408 72.5396 10.224 73.2596 11.184C74.1716 12.336 74.8436 13.68 75.2756 15.12L75.5156 15.984L78.2036 15.36ZM117.49 5.664L124.69 2.496V36L114.226 26.832V23.712L97.3781 9.024V2.496L117.49 20.064V5.664ZM95.4101 36V11.04L112.21 25.68V28.8L102.61 20.4V36H95.4101ZM183.464 25.44H168.344V22.224H183.464V25.44ZM239.667 6.72V17.472H242.211V35.76H234.963V11.472H224.595V4.224H231.747V6.72H239.667ZM233.715 2.256H254.595L251.715 9.456H244.179V15.504H241.635V4.752H233.715V2.256ZM276.274 24.624V28.752H292.93V35.952H269.074V18.096H271.138V22.32H277.762V24.624H276.274ZM294.898 9.648H278.242V15.408H294.85L292.066 22.56L292.018 22.656H279.73V20.352H273.154V16.128H271.042V2.448H294.898V9.648ZM313.897 18.576V17.616H311.737C312.217 9.408 318.889 2.784 327.289 2.544C331.513 2.4 335.593 3.936 338.761 6.912C339.097 7.2 339.433 7.584 339.769 7.92L334.393 12.72C332.761 10.896 330.409 9.744 327.769 9.744C322.873 9.744 318.889 13.728 318.889 18.576C318.889 20.352 319.417 21.984 320.329 23.376L316.393 26.544C315.673 25.536 315.097 24.432 314.665 23.232C314.137 21.744 313.897 20.16 313.897 18.576ZM327.769 28.944C330.169 28.944 332.425 28.128 334.249 26.64L338.905 32.448C335.641 35.04 331.753 36.288 327.817 36.288C322.777 36.288 317.737 34.176 314.233 30.096C311.641 27.024 310.297 23.328 310.105 19.584H311.929C312.025 21.072 312.313 22.512 312.841 23.904C313.417 25.584 314.329 27.168 315.433 28.56L316.057 29.328L320.377 25.824L320.761 26.16C322.681 27.936 325.177 28.944 327.769 28.944ZM366.705 16.416V19.2H376.065V23.664H363.057V36.144H355.857V3.936H363.057V16.416H366.705ZM385.281 2.592H385.329V36.096L378.129 32.976V32.928L378.033 17.232H368.673V14.448H378.129V2.592H385.281ZM425.506 5.664L432.706 2.496V36L422.242 26.832V23.712L405.394 9.024V2.496L425.506 20.064V5.664ZM403.426 36V11.04L420.226 25.68V28.8L410.626 20.4V36H403.426ZM452.736 2.496H459.936V17.616H457.968V8.4H452.736V2.496ZM456 10.368V19.584H457.968V36L450.768 32.832V10.368H456ZM479.319 18.576V17.616H477.159C477.639 9.408 484.311 2.784 492.711 2.544C496.935 2.4 501.015 3.936 504.183 6.912C504.519 7.2 504.855 7.584 505.191 7.92L499.815 12.72C498.183 10.896 495.831 9.744 493.191 9.744C488.295 9.744 484.311 13.728 484.311 18.576C484.311 20.352 484.839 21.984 485.751 23.376L481.815 26.544C481.095 25.536 480.519 24.432 480.087 23.232C479.559 21.744 479.319 20.16 479.319 18.576ZM493.191 28.944C495.591 28.944 497.847 28.128 499.671 26.64L504.327 32.448C501.063 35.04 497.175 36.288 493.239 36.288C488.199 36.288 483.159 34.176 479.655 30.096C477.063 27.024 475.719 23.328 475.527 19.584H477.351C477.447 21.072 477.735 22.512 478.263 23.904C478.839 25.584 479.751 27.168 480.855 28.56L481.479 29.328L485.799 25.824L486.183 26.16C488.103 27.936 490.599 28.944 493.191 28.944ZM535.727 17.664L533.855 21.696H525.935L535.727 0.383998L547.919 26.928H532.751L533.807 24.624H538.943L535.727 17.664ZM545.951 28.896L547.967 33.216L541.295 36.096L540.287 33.84H527.231L526.175 36.096H518.255L523.919 23.664H531.887L529.487 28.896H545.951ZM576.649 26.832V30.096H563.497V2.64L570.745 5.76V26.832H576.649ZM578.617 28.8H587.161V36H565.465V32.064H578.617V28.8ZM637.259 24.624V28.752H653.915V35.952H630.059V18.096H632.123V22.32H638.747V24.624H637.259ZM655.883 9.648H639.227V15.408H655.835L653.051 22.56L653.003 22.656H640.715V20.352H634.139V16.128H632.027V2.448H655.883V9.648ZM695.81 2.448H703.778L689.618 33.168L688.226 30.144L693.746 18.096L691.154 12.48L695.81 2.448ZM691.154 18.768L685.586 30.816L686.978 33.84L685.634 36.864L670.13 3.072H678.05L685.634 19.536L688.514 13.152L691.154 18.768ZM725.571 24.624V28.752H742.227V35.952H718.371V18.096H720.435V22.32H727.059V24.624H725.571ZM744.195 9.648H727.539V15.408H744.147L741.363 22.56L741.315 22.656H729.027V20.352H722.451V16.128H720.339V2.448H744.195V9.648ZM783.162 5.664L790.362 2.496V36L779.898 26.832V23.712L763.05 9.024V2.496L783.162 20.064V5.664ZM761.082 36V11.04L777.882 25.68V28.8L768.282 20.4V36H761.082ZM821.433 6.72V17.472H823.977V35.76H816.729V11.472H806.361V4.224H813.513V6.72H821.433ZM815.481 2.256H836.361L833.481 9.456H825.945V15.504H823.401V4.752H815.481V2.256ZM867.832 18.24C872.2 18.24 875.752 21.744 875.752 26.016H878.008C878.008 31.536 873.448 36 867.832 36H852.04V28.896H867.832C869.464 28.896 870.808 27.6 870.808 26.016C870.808 24.384 869.464 23.088 867.832 23.088H860.056C854.44 23.088 849.88 18.624 849.88 13.104H854.584C854.728 15.936 858.472 18.24 861.112 18.24H867.832ZM861.64 16.704C858.712 16.704 856.36 14.352 856.36 11.52H851.464C851.464 6 856.024 1.488 861.64 1.488H879.4L872.296 8.592H861.64C860.008 8.592 858.664 9.936 858.664 11.52C858.664 13.104 860.008 14.448 861.64 14.448H869.416C871.624 14.448 874.216 15.552 876.184 17.376C878.2 19.2 879.64 21.696 879.64 24.432H877.48C877.24 20.304 873.016 16.704 869.416 16.704H861.64Z" fill="url(#paint0_linear_33_6)"/>
<defs>
<linearGradient id="paint0_linear_33_6" x1="439.5" y1="-2" x2="439.5" y2="43" gradientUnits="userSpaceOnUse">
<stop stop-color="white"/>
<stop offset="1" stop-color="#5B5B5B"/>
</linearGradient>
</defs>
</svg>
