<svg width="251" height="36" viewBox="0 0 251 36" fill="none" xmlns="http://www.w3.org/2000/svg">
<path d="M7.77425 22.28H14.0623V24.536H7.77425V35.048H0.57425V3.512H5.42225V14.024H7.77425V22.28ZM18.6223 1.496C24.4303 1.496 29.1343 6.248 29.1343 12.056C29.1343 17.816 24.4303 22.568 18.6223 22.568H16.0303V20.312H9.74225V15.32H18.6223C20.4463 15.32 21.9343 13.832 21.9343 12.056C21.9343 10.232 20.4463 8.744 18.6223 8.744H9.74225V12.056H7.39025V1.496H18.6223ZM47.2096 21.272L44.6176 21.848C43.6576 18.008 43.8976 13.64 45.6736 10.136C45.9616 9.608 46.2496 9.128 46.5376 8.648C48.5536 5.528 51.4816 3.272 55.0336 2.072C59.1136 0.727998 63.4816 1.064 67.3216 3.032C71.1616 4.952 73.9936 8.216 75.3376 12.248L73.6096 12.68C73.1296 11.336 72.4096 10.088 71.5936 8.984C70.5376 7.592 69.2896 6.44 67.8496 5.528L67.0336 4.952L64.1056 9.464C64.1056 9.464 64.1056 9.464 64.0576 9.464C61.9456 8.408 59.5456 8.216 57.2896 8.984C55.0336 9.704 53.2096 11.288 52.1536 13.4C51.0976 15.512 50.9056 17.912 51.6256 20.168C52.2016 21.848 53.2096 23.288 54.5536 24.344L51.8656 28.52C50.9536 27.8 50.1376 26.984 49.4656 26.072C48.5536 24.872 47.8816 23.576 47.4496 22.136L47.2096 21.272ZM74.9536 14.36C75.9136 18.152 75.5296 22.52 73.8016 26.024C71.8336 29.864 68.5216 32.696 64.4416 34.04C60.3616 35.384 55.9936 35.048 52.1536 33.128C48.3616 31.208 45.5296 27.944 44.1856 23.96L45.8656 23.576C46.3456 24.872 47.0176 26.12 47.8816 27.272C48.9376 28.616 50.1856 29.816 51.6256 30.728L52.4416 31.256L55.4176 26.648C57.5296 27.752 59.9296 27.896 62.1856 27.176C64.1536 26.552 65.7856 25.256 66.8416 23.576C67.0336 23.288 67.1776 23.048 67.3216 22.76C68.4256 20.648 68.5696 18.2 67.8496 15.944C67.3216 14.312 66.3136 12.872 64.9696 11.816L67.5616 7.736C68.4736 8.408 69.2896 9.224 70.0096 10.184C70.9216 11.336 71.5936 12.68 72.0256 14.12L72.2656 14.984L74.9536 14.36ZM108.816 17.24C113.184 17.24 116.736 20.744 116.736 25.016H118.992C118.992 30.536 114.432 35 108.816 35H93.0241V27.896H108.816C110.448 27.896 111.792 26.6 111.792 25.016C111.792 23.384 110.448 22.088 108.816 22.088H101.04C95.4241 22.088 90.8641 17.624 90.8641 12.104H95.5681C95.7121 14.936 99.4561 17.24 102.096 17.24H108.816ZM102.624 15.704C99.6961 15.704 97.3441 13.352 97.3441 10.52H92.4481C92.4481 5 97.0081 0.487998 102.624 0.487998H120.384L113.28 7.592H102.624C100.992 7.592 99.6481 8.936 99.6481 10.52C99.6481 12.104 100.992 13.448 102.624 13.448H110.4C112.608 13.448 115.2 14.552 117.168 16.376C119.184 18.2 120.624 20.696 120.624 23.432H118.464C118.224 19.304 114 15.704 110.4 15.704H102.624ZM149.651 5.72V16.472H152.195V34.76H144.947V10.472H134.579V3.224H141.731V5.72H149.651ZM143.699 1.256H164.579L161.699 8.456H154.163V14.504H151.619V3.752H143.699V1.256ZM186.259 23.624V27.752H202.915V34.952H179.059V17.096H181.123V21.32H187.747V23.624H186.259ZM204.883 8.648H188.227V14.408H204.835L202.051 21.56L202.003 21.656H189.715V19.352H183.139V15.128H181.027V1.448H204.883V8.648ZM231.273 8.744V12.056H228.922V1.544L240.154 1.496C245.962 1.496 250.666 6.2 250.666 12.008C250.666 15.944 248.506 19.352 245.338 21.176L242.65 17.144H231.273V15.32H240.154C241.978 15.32 243.466 13.832 243.466 12.008C243.466 10.184 241.978 8.744 240.154 8.744H231.273ZM243.322 23.144L250.906 35H242.266L235.594 24.488H229.306V31.88L222.105 35V3.464H226.954V13.976H229.306V19.112H240.682L243.37 23.144H243.322Z" fill="url(#paint0_linear_138_25)"/>
<defs>
<linearGradient id="paint0_linear_138_25" x1="125" y1="-3" x2="125" y2="42" gradientUnits="userSpaceOnUse">
<stop stop-color="white"/>
<stop offset="1" stop-color="#5B5B5B"/>
</linearGradient>
</defs>
</svg>
