<svg width="706" height="37" viewBox="0 0 706 37" fill="none" xmlns="http://www.w3.org/2000/svg">
<path d="M9.39069 9.744V13.056H7.03869V2.544L18.2707 2.496C24.0787 2.496 28.7827 7.2 28.7827 13.008C28.7827 16.944 26.6227 20.352 23.4547 22.176L20.7667 18.144H9.39069V16.32H18.2707C20.0947 16.32 21.5827 14.832 21.5827 13.008C21.5827 11.184 20.0947 9.744 18.2707 9.744H9.39069ZM21.4387 24.144L29.0227 36H20.3827L13.7107 25.488H7.42269V32.88L0.222687 36V4.464H5.07069V14.976H7.42269V20.112H18.7987L21.4867 24.144H21.4387ZM52.4069 24.624V28.752H69.0629V35.952H45.2069V18.096H47.2709V22.32H53.8949V24.624H52.4069ZM71.0309 9.648H54.3749V15.408H70.9829L68.1989 22.56L68.1509 22.656H55.8629V20.352H49.2869V16.128H47.1749V2.448H71.0309V9.648ZM103.422 26.88C106.11 26.88 108.462 25.488 109.806 23.376L104.19 23.328L106.782 16.8L117.438 16.848V23.376H112.446C111.918 24.48 111.246 25.488 110.382 26.304C108.51 28.176 106.014 29.184 103.422 29.184H102.126V26.832L103.182 26.88C103.278 26.88 103.326 26.88 103.422 26.88ZM113.694 25.872L118.83 25.824C117.726 28.512 115.902 30.816 113.598 32.592C110.67 34.848 107.118 36 103.47 36C102.702 36 101.934 35.952 101.214 35.856C96.7499 35.28 92.7659 32.976 90.0779 29.424C87.3419 25.872 86.1899 21.504 86.8139 17.04C87.3899 12.576 89.6939 8.592 93.2459 5.904C100.59 0.287999 111.15 1.68 116.766 9.072L111.006 13.44C109.47 11.424 107.214 10.128 104.67 9.792C102.126 9.456 99.6299 10.128 97.6139 11.664C95.5979 13.2 94.3019 15.456 93.9659 18C93.6299 20.544 94.3019 23.04 95.8379 25.056C97.0859 26.736 98.8619 27.888 100.878 28.416V31.152L101.07 31.2L102.366 31.344C102.75 31.392 103.134 31.392 103.518 31.392C107.79 31.392 111.534 29.184 113.694 25.872ZM137.041 2.496H144.241V17.616H142.273V8.4H137.041V2.496ZM140.305 10.368V19.584H142.273V36L135.073 32.832V10.368H140.305ZM178.168 18.24C182.536 18.24 186.088 21.744 186.088 26.016H188.344C188.344 31.536 183.784 36 178.168 36H162.376V28.896H178.168C179.8 28.896 181.144 27.6 181.144 26.016C181.144 24.384 179.8 23.088 178.168 23.088H170.392C164.776 23.088 160.216 18.624 160.216 13.104H164.92C165.064 15.936 168.808 18.24 171.448 18.24H178.168ZM171.976 16.704C169.048 16.704 166.696 14.352 166.696 11.52H161.8C161.8 6 166.36 1.488 171.976 1.488H189.736L182.632 8.592H171.976C170.344 8.592 169 9.936 169 11.52C169 13.104 170.344 14.448 171.976 14.448H179.752C181.96 14.448 184.552 15.552 186.52 17.376C188.536 19.2 189.976 21.696 189.976 24.432H187.816C187.576 20.304 183.352 16.704 179.752 16.704H171.976ZM219.003 6.72V17.472H221.547V35.76H214.299V11.472H203.931V4.224H211.083V6.72H219.003ZM213.051 2.256H233.931L231.051 9.456H223.515V15.504H220.971V4.752H213.051V2.256ZM258.25 9.744V13.056H255.898V2.544L267.13 2.496C272.938 2.496 277.642 7.2 277.642 13.008C277.642 16.944 275.482 20.352 272.314 22.176L269.626 18.144H258.25V16.32H267.13C268.954 16.32 270.442 14.832 270.442 13.008C270.442 11.184 268.954 9.744 267.13 9.744H258.25ZM270.298 24.144L277.882 36H269.242L262.57 25.488H256.282V32.88L249.082 36V4.464H253.93V14.976H256.282V20.112H267.658L270.346 24.144H270.298ZM309.234 17.664L307.362 21.696H299.442L309.234 0.383998L321.426 26.928H306.258L307.314 24.624H312.45L309.234 17.664ZM319.458 28.896L321.474 33.216L314.802 36.096L313.794 33.84H300.738L299.682 36.096H291.762L297.426 23.664H305.394L302.994 28.896H319.458ZM350.253 6.72V17.472H352.797V35.76H345.549V11.472H335.181V4.224H342.333V6.72H350.253ZM344.301 2.256H365.181L362.301 9.456H354.765V15.504H352.221V4.752H344.301V2.256ZM381.916 2.496H389.116V17.616H387.148V8.4H381.916V2.496ZM385.18 10.368V19.584H387.148V36L379.948 32.832V10.368H385.18ZM408.499 22.272L405.907 22.848C404.947 19.008 405.187 14.64 406.963 11.136C407.251 10.608 407.539 10.128 407.827 9.648C409.843 6.528 412.771 4.272 416.323 3.072C420.403 1.728 424.771 2.064 428.611 4.032C432.451 5.952 435.283 9.216 436.627 13.248L434.899 13.68C434.419 12.336 433.699 11.088 432.883 9.984C431.827 8.592 430.579 7.44 429.139 6.528L428.323 5.952L425.395 10.464C425.395 10.464 425.395 10.464 425.347 10.464C423.235 9.408 420.835 9.216 418.579 9.984C416.323 10.704 414.499 12.288 413.443 14.4C412.387 16.512 412.195 18.912 412.915 21.168C413.491 22.848 414.499 24.288 415.843 25.344L413.155 29.52C412.243 28.8 411.427 27.984 410.755 27.072C409.843 25.872 409.171 24.576 408.739 23.136L408.499 22.272ZM436.243 15.36C437.203 19.152 436.819 23.52 435.091 27.024C433.123 30.864 429.811 33.696 425.731 35.04C421.651 36.384 417.283 36.048 413.443 34.128C409.651 32.208 406.819 28.944 405.475 24.96L407.155 24.576C407.635 25.872 408.307 27.12 409.171 28.272C410.227 29.616 411.475 30.816 412.915 31.728L413.731 32.256L416.707 27.648C418.819 28.752 421.219 28.896 423.475 28.176C425.443 27.552 427.075 26.256 428.131 24.576C428.323 24.288 428.467 24.048 428.611 23.76C429.715 21.648 429.859 19.2 429.139 16.944C428.611 15.312 427.603 13.872 426.259 12.816L428.851 8.736C429.763 9.408 430.579 10.224 431.299 11.184C432.211 12.336 432.883 13.68 433.315 15.12L433.555 15.984L436.243 15.36ZM475.529 5.664L482.729 2.496V36L472.265 26.832V23.712L455.417 9.024V2.496L475.529 20.064V5.664ZM453.449 36V11.04L470.249 25.68V28.8L460.649 20.4V36H453.449ZM533.391 6.816V19.296H549.279L546.399 26.544H535.935V36H528.735V6.816H533.391ZM530.847 2.544H554.703V9.792H537.903V17.328H535.359V4.848H530.703V2.592H530.847V2.544ZM572.327 22.272L569.735 22.848C568.775 19.008 569.015 14.64 570.791 11.136C571.079 10.608 571.367 10.128 571.655 9.648C573.671 6.528 576.599 4.272 580.151 3.072C584.231 1.728 588.599 2.064 592.439 4.032C596.279 5.952 599.111 9.216 600.455 13.248L598.727 13.68C598.247 12.336 597.527 11.088 596.711 9.984C595.655 8.592 594.407 7.44 592.967 6.528L592.151 5.952L589.223 10.464C589.223 10.464 589.223 10.464 589.175 10.464C587.063 9.408 584.663 9.216 582.407 9.984C580.151 10.704 578.327 12.288 577.271 14.4C576.215 16.512 576.023 18.912 576.743 21.168C577.319 22.848 578.327 24.288 579.671 25.344L576.983 29.52C576.071 28.8 575.255 27.984 574.583 27.072C573.671 25.872 572.999 24.576 572.567 23.136L572.327 22.272ZM600.071 15.36C601.031 19.152 600.647 23.52 598.919 27.024C596.951 30.864 593.639 33.696 589.559 35.04C585.479 36.384 581.111 36.048 577.271 34.128C573.479 32.208 570.647 28.944 569.303 24.96L570.983 24.576C571.463 25.872 572.135 27.12 572.999 28.272C574.055 29.616 575.303 30.816 576.743 31.728L577.559 32.256L580.535 27.648C582.647 28.752 585.047 28.896 587.303 28.176C589.271 27.552 590.903 26.256 591.959 24.576C592.151 24.288 592.295 24.048 592.439 23.76C593.543 21.648 593.687 19.2 592.967 16.944C592.439 15.312 591.431 13.872 590.087 12.816L592.679 8.736C593.591 9.408 594.407 10.224 595.127 11.184C596.039 12.336 596.711 13.68 597.143 15.12L597.383 15.984L600.071 15.36ZM626.781 9.744V13.056H624.429V2.544L635.661 2.496C641.469 2.496 646.173 7.2 646.173 13.008C646.173 16.944 644.013 20.352 640.845 22.176L638.157 18.144H626.781V16.32H635.661C637.485 16.32 638.973 14.832 638.973 13.008C638.973 11.184 637.485 9.744 635.661 9.744H626.781ZM638.829 24.144L646.413 36H637.773L631.101 25.488H624.813V32.88L617.613 36V4.464H622.461V14.976H624.813V20.112H636.189L638.877 24.144H638.829ZM705.702 2.544V36L698.454 32.88V20.016L685.35 33.12L680.07 27.84V24.864L664.95 9.744V2.496L685.35 22.896L705.702 2.544ZM662.982 36V11.04L678.102 26.16V29.136L670.182 21.264V36H662.982Z" fill="url(#paint0_linear_130_2)"/>
<defs>
<linearGradient id="paint0_linear_130_2" x1="353" y1="-2" x2="353" y2="43" gradientUnits="userSpaceOnUse">
<stop stop-color="white"/>
<stop offset="1" stop-color="#5B5B5B"/>
</linearGradient>
</defs>
</svg>
