<svg width="656" height="37" viewBox="0 0 656 37" fill="none" xmlns="http://www.w3.org/2000/svg">
<path d="M15.792 6.72V17.472H18.336V35.76H11.088V11.472H0.72V4.224H7.872V6.72H15.792ZM9.84 2.256H30.72L27.84 9.456H20.304V15.504H17.76V4.752H9.84V2.256ZM52.3991 24.624V28.752H69.0551V35.952H45.1991V18.096H47.2631V22.32H53.8871V24.624H52.3991ZM71.0231 9.648H54.3671V15.408H70.9751L68.1911 22.56L68.1431 22.656H55.8551V20.352H49.2791V16.128H47.1671V2.448H71.0231V9.648ZM90.0221 18.576V17.616H87.8621C88.3421 9.408 95.0141 2.784 103.414 2.544C107.638 2.4 111.718 3.936 114.886 6.912C115.222 7.2 115.558 7.584 115.894 7.92L110.518 12.72C108.886 10.896 106.534 9.744 103.894 9.744C98.9981 9.744 95.0141 13.728 95.0141 18.576C95.0141 20.352 95.5421 21.984 96.4541 23.376L92.5181 26.544C91.7981 25.536 91.2221 24.432 90.7901 23.232C90.2621 21.744 90.0221 20.16 90.0221 18.576ZM103.894 28.944C106.294 28.944 108.55 28.128 110.374 26.64L115.03 32.448C111.766 35.04 107.878 36.288 103.942 36.288C98.9021 36.288 93.8621 34.176 90.3581 30.096C87.7661 27.024 86.4221 23.328 86.2301 19.584H88.0541C88.1501 21.072 88.4381 22.512 88.9661 23.904C89.5421 25.584 90.4541 27.168 91.5581 28.56L92.1821 29.328L96.5021 25.824L96.8861 26.16C98.8061 27.936 101.302 28.944 103.894 28.944ZM142.83 16.416V19.2H152.19V23.664H139.182V36.144H131.982V3.936H139.182V16.416H142.83ZM161.406 2.592H161.454V36.096L154.254 32.976V32.928L154.158 17.232H144.798V14.448H154.254V2.592H161.406ZM201.631 5.664L208.831 2.496V36L198.367 26.832V23.712L181.519 9.024V2.496L201.631 20.064V5.664ZM179.551 36V11.04L196.351 25.68V28.8L186.751 20.4V36H179.551ZM228.861 2.496H236.061V17.616H234.093V8.4H228.861V2.496ZM232.125 10.368V19.584H234.093V36L226.893 32.832V10.368H232.125ZM255.444 18.576V17.616H253.284C253.764 9.408 260.436 2.784 268.836 2.544C273.06 2.4 277.14 3.936 280.308 6.912C280.644 7.2 280.98 7.584 281.316 7.92L275.94 12.72C274.308 10.896 271.956 9.744 269.316 9.744C264.42 9.744 260.436 13.728 260.436 18.576C260.436 20.352 260.964 21.984 261.876 23.376L257.94 26.544C257.22 25.536 256.644 24.432 256.212 23.232C255.684 21.744 255.444 20.16 255.444 18.576ZM269.316 28.944C271.716 28.944 273.972 28.128 275.796 26.64L280.452 32.448C277.188 35.04 273.3 36.288 269.364 36.288C264.324 36.288 259.284 34.176 255.78 30.096C253.188 27.024 251.844 23.328 251.652 19.584H253.476C253.572 21.072 253.86 22.512 254.388 23.904C254.964 25.584 255.876 27.168 256.98 28.56L257.604 29.328L261.924 25.824L262.308 26.16C264.228 27.936 266.724 28.944 269.316 28.944ZM311.852 17.664L309.98 21.696H302.06L311.852 0.383998L324.044 26.928H308.876L309.932 24.624H315.068L311.852 17.664ZM322.076 28.896L324.092 33.216L317.42 36.096L316.412 33.84H303.356L302.3 36.096H294.38L300.044 23.664H308.012L305.612 28.896H322.076ZM352.774 26.832V30.096H339.622V2.64L346.87 5.76V26.832H352.774ZM354.742 28.8H363.286V36H341.59V32.064H354.742V28.8ZM413.384 24.624V28.752H430.04V35.952H406.184V18.096H408.248V22.32H414.872V24.624H413.384ZM432.008 9.648H415.352V15.408H431.96L429.176 22.56L429.128 22.656H416.84V20.352H410.264V16.128H408.152V2.448H432.008V9.648ZM471.935 2.448H479.903L465.743 33.168L464.351 30.144L469.871 18.096L467.279 12.48L471.935 2.448ZM467.279 18.768L461.711 30.816L463.103 33.84L461.759 36.864L446.255 3.072H454.175L461.759 19.536L464.639 13.152L467.279 18.768ZM501.696 24.624V28.752H518.352V35.952H494.496V18.096H496.56V22.32H503.184V24.624H501.696ZM520.32 9.648H503.664V15.408H520.272L517.488 22.56L517.44 22.656H505.152V20.352H498.576V16.128H496.464V2.448H520.32V9.648ZM559.287 5.664L566.487 2.496V36L556.023 26.832V23.712L539.175 9.024V2.496L559.287 20.064V5.664ZM537.207 36V11.04L554.007 25.68V28.8L544.407 20.4V36H537.207ZM597.558 6.72V17.472H600.102V35.76H592.854V11.472H582.486V4.224H589.638V6.72H597.558ZM591.606 2.256H612.486L609.606 9.456H602.07V15.504H599.526V4.752H591.606V2.256ZM643.957 18.24C648.325 18.24 651.877 21.744 651.877 26.016H654.133C654.133 31.536 649.573 36 643.957 36H628.165V28.896H643.957C645.589 28.896 646.933 27.6 646.933 26.016C646.933 24.384 645.589 23.088 643.957 23.088H636.181C630.565 23.088 626.005 18.624 626.005 13.104H630.709C630.853 15.936 634.597 18.24 637.237 18.24H643.957ZM637.765 16.704C634.837 16.704 632.485 14.352 632.485 11.52H627.589C627.589 6 632.149 1.488 637.765 1.488H655.525L648.421 8.592H637.765C636.133 8.592 634.789 9.936 634.789 11.52C634.789 13.104 636.133 14.448 637.765 14.448H645.541C647.749 14.448 650.341 15.552 652.309 17.376C654.325 19.2 655.765 21.696 655.765 24.432H653.605C653.365 20.304 649.141 16.704 645.541 16.704H637.765Z" fill="url(#paint0_linear_17_5)"/>
<defs>
<linearGradient id="paint0_linear_17_5" x1="328.5" y1="-2" x2="328.5" y2="43" gradientUnits="userSpaceOnUse">
<stop stop-color="white"/>
<stop offset="1" stop-color="#5B5B5B"/>
</linearGradient>
</defs>
</svg>
