<svg width="414" height="36" viewBox="0 0 414 36" fill="none" xmlns="http://www.w3.org/2000/svg">
<path d="M16.637 20.024L22.061 11.048L31.661 26.792V26.744L29.405 31.688L23.693 22.328L15.725 35.432L15.629 35.144L0.125 1.4H8.045L16.637 20.024ZM41.261 2.216H49.229L34.349 34.52L34.301 34.76L31.997 31.016L34.301 26.12L24.701 10.376L26.333 7.736L33.389 19.352L41.261 2.216ZM66.4284 21.272L63.8364 21.848C62.8764 18.008 63.1164 13.64 64.8924 10.136C65.1804 9.608 65.4684 9.128 65.7564 8.648C67.7724 5.528 70.7004 3.272 74.2524 2.072C78.3324 0.727998 82.7004 1.064 86.5404 3.032C90.3804 4.952 93.2124 8.216 94.5564 12.248L92.8284 12.68C92.3484 11.336 91.6284 10.088 90.8124 8.984C89.7564 7.592 88.5084 6.44 87.0684 5.528L86.2524 4.952L83.3244 9.464C83.3244 9.464 83.3244 9.464 83.2764 9.464C81.1644 8.408 78.7644 8.216 76.5084 8.984C74.2524 9.704 72.4284 11.288 71.3724 13.4C70.3164 15.512 70.1244 17.912 70.8444 20.168C71.4204 21.848 72.4284 23.288 73.7724 24.344L71.0844 28.52C70.1724 27.8 69.3564 26.984 68.6844 26.072C67.7724 24.872 67.1004 23.576 66.6684 22.136L66.4284 21.272ZM94.1724 14.36C95.1324 18.152 94.7484 22.52 93.0204 26.024C91.0524 29.864 87.7404 32.696 83.6604 34.04C79.5804 35.384 75.2124 35.048 71.3724 33.128C67.5804 31.208 64.7484 27.944 63.4044 23.96L65.0844 23.576C65.5644 24.872 66.2364 26.12 67.1004 27.272C68.1564 28.616 69.4044 29.816 70.8444 30.728L71.6604 31.256L74.6364 26.648C76.7484 27.752 79.1484 27.896 81.4044 27.176C83.3724 26.552 85.0044 25.256 86.0604 23.576C86.2524 23.288 86.3964 23.048 86.5404 22.76C87.6444 20.648 87.7884 18.2 87.0684 15.944C86.5404 14.312 85.5324 12.872 84.1884 11.816L86.7804 7.736C87.6924 8.408 88.5084 9.224 89.2284 10.184C90.1404 11.336 90.8124 12.68 91.2444 14.12L91.4844 14.984L94.1724 14.36ZM120.883 8.744V12.056H118.531V1.544L129.763 1.496C135.571 1.496 140.275 6.2 140.275 12.008C140.275 15.944 138.115 19.352 134.947 21.176L132.259 17.144H120.883V15.32H129.763C131.587 15.32 133.075 13.832 133.075 12.008C133.075 10.184 131.587 8.744 129.763 8.744H120.883ZM132.931 23.144L140.515 35H131.875L125.203 24.488H118.915V31.88L111.715 35V3.464H116.563V13.976H118.915V19.112H130.291L132.979 23.144H132.931ZM175.323 25.592L165.435 15.656H158.187V0.967998L165.435 4.088V11.72L176.187 0.967998H186.411L170.523 16.808L179.259 25.592H175.323ZM174.027 27.56H177.963L185.307 34.904H175.083L164.091 23.912V35.144H156.891V17.624H164.091L174.027 27.56ZM217.426 17.24C221.794 17.24 225.346 20.744 225.346 25.016H227.602C227.602 30.536 223.042 35 217.426 35H201.634V27.896H217.426C219.058 27.896 220.402 26.6 220.402 25.016C220.402 23.384 219.058 22.088 217.426 22.088H209.65C204.034 22.088 199.474 17.624 199.474 12.104H204.178C204.322 14.936 208.066 17.24 210.706 17.24H217.426ZM211.234 15.704C208.306 15.704 205.954 13.352 205.954 10.52H201.058C201.058 5 205.618 0.487998 211.234 0.487998H228.994L221.89 7.592H211.234C209.602 7.592 208.258 8.936 208.258 10.52C208.258 12.104 209.602 13.448 211.234 13.448H219.01C221.218 13.448 223.81 14.552 225.778 16.376C227.794 18.2 229.234 20.696 229.234 23.432H227.074C226.834 19.304 222.609 15.704 219.01 15.704H211.234ZM256.533 15.416V18.2H265.893V22.664H252.885V35.144H245.685V2.936H252.885V15.416H256.533ZM275.109 1.592H275.157V35.096L267.957 31.976V31.928L267.861 16.232H258.501V13.448H267.957V1.592H275.109ZM295.366 21.272L292.774 21.848C291.814 18.008 292.054 13.64 293.83 10.136C294.118 9.608 294.406 9.128 294.694 8.648C296.71 5.528 299.638 3.272 303.19 2.072C307.27 0.727998 311.638 1.064 315.478 3.032C319.318 4.952 322.15 8.216 323.494 12.248L321.766 12.68C321.286 11.336 320.566 10.088 319.75 8.984C318.694 7.592 317.446 6.44 316.006 5.528L315.19 4.952L312.262 9.464C312.262 9.464 312.262 9.464 312.214 9.464C310.102 8.408 307.702 8.216 305.446 8.984C303.19 9.704 301.366 11.288 300.31 13.4C299.254 15.512 299.062 17.912 299.782 20.168C300.358 21.848 301.366 23.288 302.71 24.344L300.022 28.52C299.11 27.8 298.294 26.984 297.622 26.072C296.71 24.872 296.038 23.576 295.606 22.136L295.366 21.272ZM323.11 14.36C324.07 18.152 323.686 22.52 321.958 26.024C319.99 29.864 316.678 32.696 312.598 34.04C308.518 35.384 304.15 35.048 300.31 33.128C296.518 31.208 293.686 27.944 292.342 23.96L294.022 23.576C294.502 24.872 295.174 26.12 296.038 27.272C297.094 28.616 298.342 29.816 299.782 30.728L300.598 31.256L303.574 26.648C305.686 27.752 308.086 27.896 310.342 27.176C312.31 26.552 313.942 25.256 314.998 23.576C315.19 23.288 315.334 23.048 315.478 22.76C316.582 20.648 316.726 18.2 316.006 15.944C315.478 14.312 314.47 12.872 313.126 11.816L315.718 7.736C316.63 8.408 317.446 9.224 318.166 10.184C319.078 11.336 319.75 12.68 320.182 14.12L320.422 14.984L323.11 14.36ZM347.852 22.28H354.14V24.536H347.852V35.048H340.652V3.512H345.5V14.024H347.852V22.28ZM358.7 1.496C364.508 1.496 369.212 6.248 369.212 12.056C369.212 17.816 364.508 22.568 358.7 22.568H356.108V20.312H349.82V15.32H358.7C360.524 15.32 362.012 13.832 362.012 12.056C362.012 10.232 360.524 8.744 358.7 8.744H349.82V12.056H347.468V1.496H358.7ZM401.832 17.24C406.2 17.24 409.752 20.744 409.752 25.016H412.008C412.008 30.536 407.448 35 401.832 35H386.04V27.896H401.832C403.464 27.896 404.808 26.6 404.808 25.016C404.808 23.384 403.464 22.088 401.832 22.088H394.056C388.44 22.088 383.88 17.624 383.88 12.104H388.584C388.728 14.936 392.472 17.24 395.112 17.24H401.832ZM395.64 15.704C392.712 15.704 390.36 13.352 390.36 10.52H385.464C385.464 5 390.024 0.487998 395.64 0.487998H413.4L406.296 7.592H395.64C394.008 7.592 392.664 8.936 392.664 10.52C392.664 12.104 394.008 13.448 395.64 13.448H403.416C405.624 13.448 408.216 14.552 410.184 16.376C412.2 18.2 413.64 20.696 413.64 23.432H411.48C411.24 19.304 407.016 15.704 403.416 15.704H395.64Z" fill="url(#paint0_linear_12_218)"/>
<defs>
<linearGradient id="paint0_linear_12_218" x1="207.5" y1="-3" x2="207.5" y2="42" gradientUnits="userSpaceOnUse">
<stop stop-color="white"/>
<stop offset="1" stop-color="#5B5B5B"/>
</linearGradient>
</defs>
</svg>
