<svg width="1512" height="312" viewBox="0 0 1512 312" fill="none" xmlns="http://www.w3.org/2000/svg">
<path d="M1579.76 282.343C1579.76 282.343 1195.94 103.869 943.046 191.411C555.23 325.756 3.16496 108.585 -38.5999 0.207581" stroke="#505050" stroke-miterlimit="10"/>
<path d="M86.5103 95.867C86.4183 96.66 86.0934 97.4079 85.5768 98.0161C85.0602 98.6242 84.3749 99.0653 83.6078 99.2836C82.8407 99.5018 82.0262 99.4874 81.2673 99.2421C80.5084 98.9968 79.8393 98.5318 79.3444 97.9057C78.8496 97.2796 78.5514 96.5207 78.4875 95.7249C78.4236 94.9291 78.5968 94.1323 78.9853 93.4351C79.3739 92.7379 79.9603 92.1718 80.6703 91.8083C81.3803 91.4448 82.1822 91.3003 82.9742 91.3931C84.0356 91.5173 85.0041 92.0584 85.6672 92.8973C86.3303 93.7362 86.6335 94.8044 86.5103 95.867Z" fill="#F6F0E8"/>
<path d="M191.671 142.694C191.577 143.483 191.251 144.228 190.734 144.832C190.218 145.437 189.534 145.875 188.769 146.09C188.004 146.306 187.193 146.29 186.437 146.044C185.681 145.798 185.015 145.333 184.523 144.709C184.031 144.084 183.735 143.327 183.672 142.534C183.609 141.741 183.783 140.947 184.171 140.253C184.558 139.559 185.143 138.995 185.851 138.633C186.558 138.271 187.357 138.127 188.146 138.22C188.672 138.281 189.179 138.446 189.641 138.704C190.102 138.962 190.509 139.309 190.836 139.725C191.163 140.14 191.406 140.616 191.549 141.126C191.692 141.635 191.734 142.168 191.671 142.694Z" fill="#F6F0E8"/>
<path d="M341.799 192.956C341.707 193.749 341.382 194.497 340.865 195.105C340.349 195.713 339.663 196.155 338.896 196.373C338.129 196.591 337.315 196.577 336.556 196.331C335.797 196.086 335.128 195.621 334.633 194.995C334.138 194.369 333.84 193.61 333.776 192.814C333.712 192.018 333.885 191.221 334.274 190.524C334.662 189.827 335.249 189.261 335.959 188.898C336.669 188.534 337.471 188.39 338.263 188.482C339.323 188.609 340.29 189.151 340.952 189.989C341.614 190.828 341.919 191.894 341.799 192.956Z" fill="#F6F0E8"/>
<path d="M589.232 232.83C589.14 233.623 588.815 234.371 588.298 234.979C587.782 235.587 587.096 236.028 586.329 236.246C585.562 236.464 584.748 236.45 583.989 236.205C583.23 235.959 582.561 235.494 582.066 234.868C581.571 234.242 581.273 233.483 581.209 232.688C581.145 231.892 581.318 231.095 581.707 230.398C582.095 229.701 582.682 229.134 583.392 228.771C584.102 228.407 584.904 228.263 585.696 228.356C586.757 228.48 587.726 229.021 588.389 229.86C589.052 230.699 589.355 231.767 589.232 232.83Z" fill="#F6F0E8"/>
<path d="M837.171 221.922C837.077 222.712 836.751 223.456 836.235 224.06C835.718 224.665 835.034 225.103 834.27 225.318C833.505 225.534 832.693 225.518 831.937 225.272C831.182 225.026 830.516 224.561 830.024 223.937C829.531 223.312 829.235 222.555 829.173 221.762C829.11 220.969 829.283 220.176 829.671 219.481C830.059 218.787 830.643 218.223 831.351 217.861C832.059 217.499 832.858 217.355 833.647 217.448C834.706 217.575 835.672 218.117 836.333 218.956C836.993 219.794 837.295 220.861 837.171 221.922Z" fill="#F6F0E8"/>
<path d="M955.129 190.339C955.037 191.132 954.712 191.88 954.195 192.488C953.679 193.096 952.993 193.537 952.226 193.755C951.459 193.973 950.645 193.959 949.886 193.714C949.127 193.469 948.458 193.003 947.963 192.377C947.468 191.751 947.17 190.992 947.106 190.197C947.042 189.401 947.215 188.604 947.604 187.907C947.992 187.21 948.579 186.643 949.289 186.28C949.999 185.916 950.801 185.772 951.593 185.865C952.654 185.989 953.623 186.53 954.286 187.369C954.949 188.208 955.252 189.276 955.129 190.339Z" fill="#F6F0E8"/>
<path d="M1164.13 171.244C1164.03 172.037 1163.71 172.785 1163.19 173.393C1162.68 174.001 1161.99 174.442 1161.22 174.66C1160.46 174.879 1159.64 174.864 1158.88 174.619C1158.12 174.374 1157.45 173.908 1156.96 173.282C1156.46 172.656 1156.17 171.897 1156.1 171.102C1156.04 170.306 1156.21 169.509 1156.6 168.812C1156.99 168.115 1157.58 167.548 1158.29 167.185C1159 166.822 1159.8 166.677 1160.59 166.77C1161.65 166.897 1162.62 167.439 1163.28 168.277C1163.94 169.115 1164.25 170.182 1164.13 171.244Z" fill="#F6F0E8"/>
<path d="M1415.9 220.699C1415.81 221.492 1415.48 222.24 1414.97 222.848C1414.45 223.456 1413.77 223.898 1413 224.116C1412.23 224.334 1411.42 224.32 1410.66 224.074C1409.9 223.829 1409.23 223.364 1408.74 222.738C1408.24 222.112 1407.94 221.353 1407.88 220.557C1407.81 219.761 1407.99 218.965 1408.38 218.267C1408.76 217.57 1409.35 217.004 1410.06 216.641C1410.77 216.277 1411.57 216.133 1412.36 216.225C1413.42 216.353 1414.39 216.894 1415.05 217.733C1415.72 218.571 1416.02 219.637 1415.9 220.699Z" fill="#F6F0E8"/>
<path d="M238.089 150.131L239.69 158.168L247.822 159.113L240.715 162.861L242.339 170.748L236.338 165.132L229.209 169.111L232.595 161.927L226.548 156.623L234.668 157.58L238.089 150.131Z" fill="#F6F0E8"/>
<path d="M435.902 203.576L437.227 210.195L443.919 210.979L438.067 214.092L439.404 220.607L434.451 215.983L428.577 219.258L431.364 213.32L426.388 208.926L433.08 209.71L435.902 203.576Z" fill="#F6F0E8"/>
<path d="M715.355 225.611L716.956 233.637L725.088 234.582L717.959 238.526L719.571 246.517L713.559 240.947L706.429 244.949L709.827 237.58L703.814 232.092L711.934 233.049L715.355 225.611Z" fill="#F6F0E8"/>
<path d="M1025.82 160.82L1027.42 168.857L1035.55 169.802L1028.45 173.469L1030.08 181.333L1024.08 175.706L1016.95 179.673L1020.32 172.547L1014.27 167.312L1022.39 168.269L1025.82 160.82Z" fill="#F6F0E8"/>
<path d="M1294.29 175.948L1295.9 183.985L1304.03 184.931L1296.93 188.598L1298.57 196.45L1292.55 190.811L1285.43 194.778L1288.81 187.664L1282.75 182.44L1290.88 183.386L1294.29 175.948Z" fill="#F6F0E8"/>
<path d="M121.975 103.904L123.576 111.941L131.708 112.886L124.601 116.599L126.225 124.486L120.224 118.859L113.094 122.837L116.481 115.665L110.434 110.396L118.554 111.353L121.975 103.904Z" fill="#F6F0E8"/>
<path d="M-92.7466 200.936C-92.7466 200.936 233.528 358.757 493.331 294.566C753.135 230.374 1493.37 194.617 1547.12 297.564" stroke="#505050" stroke-miterlimit="10"/>
<path d="M55.3998 257.84C55.3998 257.277 55.2333 256.727 54.9212 256.259C54.6091 255.791 54.1654 255.426 53.6462 255.21C53.1271 254.994 52.5556 254.937 52.004 255.046C51.4525 255.155 50.9456 255.425 50.5472 255.822C50.1489 256.219 49.8771 256.726 49.766 257.277C49.655 257.829 49.7097 258.401 49.9232 258.922C50.1368 259.442 50.4996 259.888 50.9659 260.202C51.4323 260.517 51.9812 260.686 52.5434 260.688C52.9179 260.69 53.2892 260.617 53.6357 260.475C53.9822 260.332 54.2972 260.123 54.5626 259.858C54.828 259.593 55.0385 259.279 55.1822 258.932C55.3259 258.586 55.3998 258.215 55.3998 257.84Z" fill="#F6F0E8"/>
<path d="M96.5886 269.82C96.5909 269.455 96.4848 269.097 96.2837 268.792C96.0826 268.487 95.7956 268.249 95.459 268.108C95.1225 267.966 94.7515 267.928 94.3933 267.998C94.035 268.068 93.7056 268.243 93.4467 268.5C93.1879 268.758 93.0112 269.087 92.9392 269.445C92.8671 269.803 92.903 270.174 93.0421 270.512C93.1812 270.85 93.4175 271.139 93.7208 271.342C94.0241 271.545 94.3808 271.654 94.7458 271.654C95.2326 271.654 95.6995 271.461 96.0448 271.118C96.3901 270.774 96.5856 270.308 96.5886 269.82Z" fill="#F6F0E8"/>
<path d="M168.808 287.024C168.81 286.461 168.645 285.91 168.334 285.44C168.024 284.971 167.581 284.604 167.062 284.386C166.543 284.168 165.971 284.11 165.419 284.217C164.866 284.325 164.358 284.594 163.959 284.991C163.56 285.388 163.286 285.894 163.174 286.446C163.062 286.998 163.116 287.571 163.33 288.092C163.543 288.613 163.906 289.06 164.372 289.375C164.839 289.689 165.388 289.859 165.951 289.861C166.705 289.861 167.428 289.563 167.963 289.032C168.498 288.5 168.801 287.779 168.808 287.024Z" fill="#F6F0E8"/>
<path d="M258.868 303.502C258.868 302.939 258.701 302.389 258.389 301.921C258.077 301.453 257.634 301.088 257.114 300.872C256.595 300.656 256.024 300.599 255.472 300.708C254.921 300.817 254.414 301.087 254.015 301.484C253.617 301.881 253.345 302.388 253.234 302.939C253.123 303.491 253.178 304.063 253.391 304.584C253.605 305.104 253.968 305.55 254.434 305.864C254.9 306.179 255.449 306.348 256.012 306.35C256.386 306.352 256.757 306.279 257.104 306.137C257.45 305.994 257.765 305.785 258.031 305.52C258.296 305.255 258.507 304.941 258.65 304.594C258.794 304.248 258.868 303.877 258.868 303.502Z" fill="#F6F0E8"/>
<path d="M343.48 309.163C343.483 308.6 343.318 308.048 343.006 307.578C342.695 307.108 342.252 306.741 341.732 306.524C341.212 306.307 340.64 306.249 340.087 306.357C339.535 306.466 339.027 306.736 338.628 307.134C338.229 307.532 337.957 308.039 337.846 308.592C337.735 309.145 337.791 309.718 338.006 310.239C338.221 310.76 338.585 311.206 339.054 311.519C339.522 311.833 340.072 312 340.635 312C341.008 312.002 341.378 311.929 341.723 311.787C342.068 311.646 342.382 311.437 342.646 311.173C342.911 310.91 343.12 310.597 343.264 310.252C343.407 309.907 343.48 309.537 343.48 309.163Z" fill="#F6F0E8"/>
<path d="M447.985 304.044C447.987 303.481 447.822 302.929 447.511 302.46C447.201 301.99 446.758 301.623 446.239 301.405C445.72 301.188 445.148 301.129 444.596 301.237C444.043 301.344 443.535 301.614 443.136 302.01C442.737 302.407 442.464 302.913 442.352 303.465C442.24 304.017 442.294 304.59 442.507 305.112C442.72 305.633 443.083 306.079 443.549 306.394C444.016 306.709 444.565 306.878 445.128 306.88C445.502 306.882 445.872 306.81 446.218 306.668C446.563 306.526 446.878 306.318 447.143 306.054C447.408 305.791 447.619 305.478 447.764 305.133C447.908 304.788 447.983 304.418 447.985 304.044Z" fill="#F6F0E8"/>
<path d="M543.516 284.476C543.518 283.913 543.354 283.361 543.043 282.892C542.732 282.422 542.289 282.055 541.771 281.838C541.252 281.62 540.68 281.561 540.127 281.669C539.575 281.777 539.067 282.046 538.668 282.443C538.268 282.839 537.995 283.346 537.883 283.898C537.771 284.45 537.825 285.023 538.038 285.544C538.252 286.065 538.614 286.511 539.081 286.826C539.548 287.141 540.097 287.31 540.66 287.313C541.033 287.314 541.404 287.242 541.749 287.1C542.095 286.959 542.409 286.75 542.675 286.487C542.94 286.223 543.151 285.91 543.295 285.565C543.44 285.22 543.515 284.85 543.516 284.476Z" fill="#F6F0E8"/>
<path d="M660.656 266.776C660.658 266.213 660.493 265.661 660.182 265.191C659.871 264.721 659.427 264.354 658.907 264.137C658.388 263.92 657.815 263.861 657.263 263.97C656.71 264.079 656.202 264.349 655.803 264.747C655.404 265.145 655.132 265.652 655.021 266.205C654.911 266.758 654.966 267.331 655.181 267.852C655.396 268.373 655.761 268.819 656.229 269.132C656.697 269.446 657.248 269.613 657.811 269.613C658.563 269.613 659.285 269.314 659.818 268.783C660.352 268.251 660.653 267.53 660.656 266.776Z" fill="#F6F0E8"/>
<path d="M808.434 249.157C808.434 248.594 808.267 248.044 807.955 247.576C807.643 247.108 807.199 246.743 806.68 246.527C806.161 246.311 805.589 246.254 805.038 246.363C804.486 246.472 803.979 246.742 803.581 247.139C803.183 247.536 802.911 248.043 802.8 248.595C802.689 249.146 802.743 249.719 802.957 250.239C803.17 250.76 803.533 251.205 804 251.52C804.466 251.834 805.015 252.003 805.577 252.005C805.952 252.007 806.323 251.934 806.669 251.792C807.016 251.649 807.331 251.44 807.596 251.175C807.862 250.911 808.072 250.596 808.216 250.25C808.36 249.904 808.434 249.532 808.434 249.157Z" fill="#F6F0E8"/>
<path d="M930.964 238.687C930.966 238.124 930.801 237.573 930.491 237.103C930.18 236.633 929.737 236.267 929.218 236.049C928.699 235.831 928.127 235.772 927.575 235.88C927.023 235.988 926.515 236.257 926.115 236.654C925.716 237.05 925.443 237.557 925.331 238.109C925.219 238.661 925.273 239.234 925.486 239.755C925.699 240.276 926.062 240.723 926.528 241.037C926.995 241.352 927.545 241.522 928.107 241.524C928.481 241.525 928.851 241.453 929.197 241.311C929.543 241.17 929.857 240.961 930.122 240.698C930.387 240.434 930.598 240.121 930.743 239.776C930.887 239.431 930.962 239.061 930.964 238.687Z" fill="#F6F0E8"/>
<path d="M1051.66 235.424C1051.66 234.86 1051.5 234.309 1051.19 233.839C1050.88 233.369 1050.43 233.002 1049.91 232.785C1049.39 232.567 1048.82 232.509 1048.27 232.618C1047.72 232.726 1047.21 232.997 1046.81 233.395C1046.41 233.792 1046.14 234.3 1046.03 234.853C1045.92 235.405 1045.97 235.979 1046.19 236.5C1046.4 237.021 1046.77 237.466 1047.24 237.78C1047.7 238.093 1048.25 238.261 1048.82 238.261C1049.19 238.262 1049.56 238.19 1049.91 238.048C1050.25 237.906 1050.56 237.697 1050.83 237.434C1051.09 237.17 1051.3 236.857 1051.45 236.512C1051.59 236.167 1051.66 235.798 1051.66 235.424Z" fill="#F6F0E8"/>
<path d="M1172.36 233.96C1172.32 233.237 1172 232.559 1171.47 232.064C1170.94 231.568 1170.25 231.293 1169.52 231.293C1168.8 231.293 1168.1 231.568 1167.58 232.064C1167.05 232.559 1166.73 233.237 1166.68 233.96C1166.66 234.348 1166.71 234.738 1166.84 235.104C1166.98 235.47 1167.18 235.806 1167.45 236.09C1167.71 236.374 1168.03 236.6 1168.39 236.754C1168.75 236.909 1169.13 236.989 1169.52 236.989C1169.91 236.989 1170.3 236.909 1170.65 236.754C1171.01 236.6 1171.33 236.374 1171.6 236.09C1171.86 235.806 1172.07 235.47 1172.2 235.104C1172.33 234.738 1172.39 234.348 1172.36 233.96Z" fill="#F6F0E8"/>
<path d="M1298.46 237.926C1298.46 237.363 1298.3 236.812 1297.99 236.342C1297.68 235.872 1297.24 235.506 1296.72 235.288C1296.2 235.07 1295.63 235.011 1295.07 235.119C1294.52 235.227 1294.01 235.496 1293.61 235.893C1293.21 236.289 1292.94 236.796 1292.83 237.348C1292.72 237.9 1292.77 238.473 1292.98 238.994C1293.2 239.515 1293.56 239.962 1294.03 240.276C1294.49 240.591 1295.04 240.761 1295.61 240.763C1295.98 240.764 1296.35 240.692 1296.69 240.55C1297.04 240.409 1297.36 240.2 1297.62 239.937C1297.89 239.673 1298.1 239.36 1298.24 239.015C1298.39 238.67 1298.46 238.3 1298.46 237.926Z" fill="#F6F0E8"/>
<path d="M1456.94 252.813C1456.94 252.249 1456.78 251.697 1456.47 251.227C1456.15 250.757 1455.71 250.39 1455.19 250.173C1454.67 249.956 1454.1 249.898 1453.55 250.006C1452.99 250.115 1452.49 250.385 1452.09 250.783C1451.69 251.181 1451.42 251.688 1451.31 252.241C1451.19 252.794 1451.25 253.367 1451.47 253.888C1451.68 254.409 1452.05 254.855 1452.51 255.168C1452.98 255.482 1453.53 255.649 1454.1 255.649C1454.47 255.651 1454.84 255.578 1455.18 255.436C1455.53 255.295 1455.84 255.086 1456.11 254.822C1456.37 254.559 1456.58 254.246 1456.72 253.901C1456.87 253.556 1456.94 253.186 1456.94 252.813Z" fill="#F6F0E8"/>
<path d="M210.008 295.361C210.01 294.996 209.904 294.638 209.703 294.333C209.502 294.028 209.215 293.79 208.878 293.648C208.542 293.507 208.171 293.469 207.813 293.539C207.454 293.609 207.125 293.783 206.866 294.041C206.607 294.298 206.43 294.627 206.358 294.985C206.286 295.344 206.322 295.715 206.461 296.053C206.6 296.391 206.837 296.679 207.14 296.883C207.443 297.086 207.8 297.194 208.165 297.194C208.652 297.194 209.119 297.002 209.464 296.658C209.809 296.315 210.005 295.848 210.008 295.361Z" fill="#F6F0E8"/>
<path d="M292.846 306.419C292.847 305.929 292.653 305.458 292.307 305.111C291.962 304.763 291.493 304.566 291.004 304.563C290.64 304.563 290.284 304.671 289.981 304.873C289.678 305.075 289.442 305.363 289.302 305.699C289.162 306.035 289.125 306.406 289.195 306.763C289.266 307.121 289.44 307.45 289.696 307.708C289.953 307.967 290.28 308.143 290.637 308.216C290.994 308.288 291.364 308.253 291.701 308.115C292.038 307.978 292.326 307.743 292.53 307.441C292.734 307.139 292.844 306.784 292.846 306.419Z" fill="#F6F0E8"/>
<path d="M395.519 308.506C395.522 308.141 395.415 307.783 395.214 307.478C395.013 307.173 394.726 306.935 394.39 306.794C394.053 306.652 393.682 306.614 393.324 306.684C392.966 306.754 392.636 306.929 392.377 307.186C392.119 307.444 391.942 307.772 391.87 308.13C391.798 308.489 391.834 308.86 391.973 309.198C392.112 309.536 392.348 309.825 392.651 310.028C392.955 310.231 393.311 310.34 393.676 310.34C394.163 310.34 394.63 310.147 394.975 309.803C395.321 309.46 395.516 308.994 395.519 308.506Z" fill="#F6F0E8"/>
<path d="M489.231 296.145C489.233 295.78 489.127 295.422 488.926 295.117C488.725 294.812 488.438 294.574 488.101 294.433C487.765 294.291 487.394 294.253 487.036 294.323C486.678 294.393 486.348 294.568 486.089 294.825C485.83 295.083 485.654 295.411 485.582 295.77C485.51 296.128 485.545 296.499 485.684 296.837C485.824 297.175 486.06 297.464 486.363 297.667C486.666 297.87 487.023 297.979 487.388 297.979C487.875 297.979 488.342 297.786 488.687 297.442C489.033 297.099 489.228 296.633 489.231 296.145Z" fill="#F6F0E8"/>
<path d="M597.375 274.813C597.377 274.448 597.271 274.09 597.07 273.785C596.869 273.48 596.582 273.242 596.245 273.101C595.909 272.959 595.538 272.921 595.18 272.991C594.821 273.061 594.492 273.236 594.233 273.493C593.974 273.751 593.798 274.079 593.725 274.438C593.653 274.796 593.689 275.167 593.828 275.505C593.968 275.843 594.204 276.132 594.507 276.335C594.81 276.538 595.167 276.647 595.532 276.647C596.019 276.647 596.486 276.454 596.831 276.11C597.176 275.767 597.372 275.301 597.375 274.813Z" fill="#F6F0E8"/>
<path d="M736.134 257.137C736.132 256.775 736.023 256.422 735.821 256.122C735.619 255.823 735.332 255.589 734.998 255.452C734.664 255.315 734.297 255.279 733.943 255.35C733.589 255.422 733.263 255.596 733.008 255.852C732.752 256.107 732.578 256.433 732.507 256.788C732.436 257.142 732.471 257.51 732.609 257.844C732.746 258.179 732.979 258.465 733.278 258.668C733.578 258.87 733.93 258.979 734.291 258.981C734.78 258.981 735.249 258.787 735.594 258.441C735.94 258.095 736.134 257.626 736.134 257.137Z" fill="#F6F0E8"/>
<path d="M869.491 243.127C869.494 242.761 869.388 242.404 869.186 242.099C868.985 241.794 868.698 241.555 868.362 241.414C868.025 241.273 867.654 241.234 867.296 241.304C866.938 241.374 866.608 241.549 866.349 241.807C866.091 242.064 865.914 242.393 865.842 242.751C865.77 243.109 865.806 243.481 865.945 243.819C866.084 244.156 866.32 244.445 866.623 244.648C866.927 244.852 867.283 244.96 867.648 244.96C868.135 244.96 868.602 244.767 868.948 244.424C869.293 244.08 869.488 243.614 869.491 243.127Z" fill="#F6F0E8"/>
<path d="M995.604 236.277C995.606 235.912 995.5 235.554 995.299 235.249C995.097 234.944 994.81 234.706 994.474 234.565C994.137 234.423 993.766 234.385 993.408 234.455C993.05 234.525 992.721 234.7 992.462 234.957C992.203 235.215 992.026 235.543 991.954 235.902C991.882 236.26 991.918 236.631 992.057 236.969C992.196 237.307 992.432 237.596 992.736 237.799C993.039 238.002 993.396 238.111 993.761 238.111C994.247 238.111 994.714 237.918 995.06 237.574C995.405 237.231 995.6 236.765 995.604 236.277Z" fill="#F6F0E8"/>
<path d="M1105.45 232.98C1105.45 232.614 1105.35 232.256 1105.15 231.952C1104.95 231.647 1104.66 231.408 1104.32 231.267C1103.99 231.126 1103.62 231.087 1103.26 231.157C1102.9 231.227 1102.57 231.402 1102.31 231.659C1102.05 231.917 1101.87 232.246 1101.8 232.604C1101.73 232.962 1101.77 233.334 1101.91 233.671C1102.04 234.009 1102.28 234.298 1102.58 234.501C1102.89 234.705 1103.24 234.813 1103.61 234.813C1104.1 234.813 1104.56 234.62 1104.91 234.277C1105.25 233.933 1105.45 233.467 1105.45 232.98Z" fill="#F6F0E8"/>
<path d="M1235.22 233.349C1235.21 232.988 1235.1 232.638 1234.89 232.341C1234.69 232.044 1234.4 231.813 1234.07 231.676C1233.74 231.54 1233.37 231.505 1233.02 231.574C1232.66 231.644 1232.34 231.816 1232.08 232.068C1231.83 232.321 1231.65 232.643 1231.57 232.995C1231.5 233.347 1231.52 233.714 1231.65 234.05C1231.78 234.387 1232.01 234.677 1232.3 234.886C1232.6 235.096 1232.94 235.215 1233.3 235.228C1233.55 235.238 1233.8 235.196 1234.04 235.105C1234.27 235.014 1234.49 234.877 1234.66 234.701C1234.84 234.525 1234.98 234.314 1235.08 234.082C1235.17 233.849 1235.22 233.6 1235.22 233.349Z" fill="#F6F0E8"/>
<path d="M1386.5 242.792C1386.5 242.427 1386.39 242.069 1386.19 241.764C1385.99 241.459 1385.7 241.221 1385.37 241.08C1385.03 240.938 1384.66 240.9 1384.3 240.97C1383.94 241.04 1383.61 241.215 1383.35 241.472C1383.09 241.73 1382.92 242.058 1382.85 242.417C1382.77 242.775 1382.81 243.146 1382.95 243.484C1383.09 243.822 1383.32 244.111 1383.63 244.314C1383.93 244.517 1384.29 244.626 1384.65 244.626C1385.14 244.626 1385.61 244.433 1385.95 244.089C1386.3 243.746 1386.49 243.28 1386.5 242.792Z" fill="#F6F0E8"/>
</svg>
